<svg id="adult" xmlns="http://www.w3.org/2000/svg" width="72.487" height="72.487" viewBox="0 0 72.487 72.487">
  <g id="Group_6377" data-name="Group 6377" transform="translate(18.381 23.865)">
    <path id="Path_31705" data-name="Path 31705" d="M87.941,132.993v-19.68H83.392V108.27H94.219v24.723Z" transform="translate(-83.392 -108.27)" fill="#4d25b9"/>
  </g>
  <g id="Group_6378" data-name="Group 6378" transform="translate(33.862 23.618)">
    <path id="Path_31706" data-name="Path 31706" d="M172.569,113.78a5.777,5.777,0,0,1-3.1,5.114,6.761,6.761,0,0,1,4.408,6.242c0,4.444-3.95,7.265-10.122,7.265s-10.122-2.786-10.122-7.159a6.9,6.9,0,0,1,4.69-6.348,6.215,6.215,0,0,1-3.421-5.29c0-3.95,3.456-6.454,8.817-6.454C169.148,107.15,172.569,109.724,172.569,113.78Zm-13.014,10.827c0,2.081,1.481,3.245,4.2,3.245s4.232-1.128,4.232-3.245c0-2.045-1.516-3.209-4.232-3.209S159.555,122.562,159.555,124.608Zm.635-10.475c0,1.764,1.27,2.751,3.562,2.751s3.562-.987,3.562-2.751c0-1.833-1.27-2.856-3.562-2.856S160.19,112.3,160.19,114.133Z" transform="translate(-153.63 -107.15)" fill="#4d25b9"/>
  </g>
  <g id="Group_6379" data-name="Group 6379">
    <path id="Path_31707" data-name="Path 31707" d="M64.553,26.656A29.858,29.858,0,1,1,45.832,7.935V1.285A36.218,36.218,0,1,0,71.2,26.656Z" transform="translate(-0.001)" fill="#4d25b9"/>
  </g>
  <g id="Group_6380" data-name="Group 6380" transform="translate(50.838 2.773)">
    <path id="Path_31708" data-name="Path 31708" d="M242.552,19.532v-6.95h-5v6.95h-6.908v5h6.908v6.949h5V24.528H249.5v-5Z" transform="translate(-230.647 -12.582)" fill="#4d25b9"/>
  </g>
</svg>
