<svg xmlns="http://www.w3.org/2000/svg" xmlns:xlink="http://www.w3.org/1999/xlink" width="1405" height="1319" viewBox="0 0 1405 1319">
  <defs>
    <clipPath id="clip-path">
      <rect id="Rectangle_5345" data-name="Rectangle 5345" width="1405" height="1319" transform="translate(0 3527)" fill="#fff" stroke="#707070" stroke-width="1"/>
    </clipPath>
    <linearGradient id="linear-gradient" x1="-0.044" y1="0.5" x2="1.19" y2="0.5" gradientUnits="objectBoundingBox">
      <stop offset="0" stop-color="#5f00ab"/>
      <stop offset="0.027" stop-color="#5f00ab"/>
      <stop offset="0.44" stop-color="#0df"/>
      <stop offset="1" stop-color="#f8cd1a"/>
    </linearGradient>
  </defs>
  <g id="bg-how" transform="translate(0 -3527)" clip-path="url(#clip-path)">
    <g id="Component_29_1" data-name="Component 29 – 1" transform="translate(-435.779 3526.668)">
      <g id="Group_6374" data-name="Group 6374" transform="translate(-117.553 -206.315)" opacity="0.1">
        <path id="Union_1" data-name="Union 1" d="M414.9,1272.369c-33.086-27.722-58.481-61.59-78.582-99.6a153.779,153.779,0,0,1-14.351-27.892,83.649,83.649,0,0,1-9.687-21.225,245.321,245.321,0,0,1-16.4-41.56v-.009a345.923,345.923,0,0,1-14.476-40.509,40.281,40.281,0,0,1-4.906-13.344l.063-.01c-1.887-1.815-2.157-4.277-2.7-6.649l-.377-1.545a73.3,73.3,0,0,1-6.542-17.649,337.592,337.592,0,0,1-14.647-38.99v-.008l.027.008c-2.606-3.387-3.487-7.458-4.511-11.475-2.121-4.583-4.987-8.887-5.185-14.18h-.009c-2.067-2.39-2.561-5.454-3.523-8.321-1.806-1.133-1.231-2.956-1.348-4.583v-.009a33.776,33.776,0,0,1-4.951-12.841q-10.109-25.031-20.138-50.088c-.207-.513.521-1.393.809-2.1-2.813-1.114-2.956-3.693-3.37-6.128a260.377,260.377,0,0,1-12.85-32.8,170.229,170.229,0,0,1-9.84-25.367,395.709,395.709,0,0,1-15.716-39.5,158.29,158.29,0,0,1-10.127-25.736c-1.294-.773-1.411-2.031-1.348-3.352-1.492-1.222-1.662-2.929-1.752-4.664a36.1,36.1,0,0,1-4.718-11.636,440.823,440.823,0,0,1-16.7-41.857,185.2,185.2,0,0,1-10.918-27.569c-4.071-7.764-7.7-15.7-9.7-24.289-3.783-7.854-7.728-15.636-9.741-24.19a310.207,310.207,0,0,1-14.387-35.782c-1.806-2.435-3.253-5.023-3.325-8.159a3.193,3.193,0,0,1-1.366-3.253,5.589,5.589,0,0,1-1.86-4.8,164.456,164.456,0,0,1-10.046-25.3l-.009-.009a85.947,85.947,0,0,1-7.917-19.714,222.853,222.853,0,0,1-13.03-32.314q-2.345-5.8-4.7-11.6l-3.54-8.079c-1.635-1.222-1.285-3.127-1.635-4.789a81.241,81.241,0,0,1-7.773-19.571A432.854,432.854,0,0,1,19.053,374.1l-.926-1.878c-1.887-2.938-3.487-5.984-3.621-9.6-7.324-14.764-13.38-29.878-12.6-46.825L1.386,301.12c-.018-1.474-.045-2.947-.081-4.413a105.584,105.584,0,0,1,.045-33.382l.306-12.4.117-6.5c-.3-3.442-.611-6.892,1.159-10.092.818-20.246,4.664-39.952,10.289-59.361,4.223-16.552,9.894-32.52,19.059-47.077,13.407-27.183,34.758-46.449,61.536-59.551C159.108,36.4,224.5,35.684,289.171,70.189a195.84,195.84,0,0,1,67.395,59.155c3.9,3.783,7.449,7.827,9.2,13.119l3.226,4.951a88.717,88.717,0,0,1,16.256,29.025l1.95,3.082.926,1.9h-.009a517.4,517.4,0,0,1,24.711,56.522,267.412,267.412,0,0,1,14.557,35.494,152.713,152.713,0,0,1,9.354,22.771l.629,4.6c3.064,4.053,4.736,8.753,6.119,13.56,8.3,16.633,14.458,34.156,20.811,51.588a378.246,378.246,0,0,1,14.414,37.274c2.7,6.128,5.913,12.058,7.081,18.763a15.4,15.4,0,0,1,3.361,8.366,353.723,353.723,0,0,1,14.36,37.238,3.976,3.976,0,0,1,.359.835,241.216,241.216,0,0,1,12.068,31.838,22.891,22.891,0,0,1,3.63,9.7,3.192,3.192,0,0,1,1.357,3.306,166.58,166.58,0,0,1,9.714,25.915,38.929,38.929,0,0,1,4.529,11.448q5.782,15.312,11.556,30.651c2.651,7.584,6.829,14.611,8.33,22.618,2.92,5.1,4.673,10.658,6.236,16.282a331.115,331.115,0,0,1,13.173,35.53q9.26,24.006,18.529,48.022c.863,2.246,1.9,4.484,1.015,6.991,1.321,3.37,4.942,5.625,4.664,9.75a257.813,257.813,0,0,1,11.484,30.741c3.558,8.464,7.225,16.9,9.561,25.825a275.275,275.275,0,0,1,11.358,30.813q4.812,12.98,9.642,25.979c5.94,14.926,11.844,29.869,16.552,45.235A394.017,394.017,0,0,1,671.587,918l2.273,6.3a12.4,12.4,0,0,1,2.534,6.668l11.268,30.759c2.381,6.227,4.583,12.527,7.252,18.619.908,2.085.18,5.913,4.376,5.562a48.751,48.751,0,0,1,5.032-12.913q9.772-27.483,19.581-54.968c1.492-6.263,3.127-12.472,5.976-18.286a1.026,1.026,0,0,1,.288-1.213c3.352-12.563,6.317-25.233,11.376-37.265-.908-5.32,1.725-9.813,3.361-14.531q4.03-16.229,8.06-32.44l4.933-22.545q4.044-21.122,8.087-42.225l4.933-32.206,3.127-24.343,1.779-19.346c1.042-11.368.575-22.851,2.678-34.147q.2-12.939.4-25.889-.93-29.141-1.86-58.273c-1.527-9.525-3.451-19.006-3.433-28.71l-.018-.036c-1.842-3.01-1.59-6.4-1.7-9.7a4.063,4.063,0,0,1-1-3.783c-1.024-3.674-2.552-7.26-1.995-11.214l-4.592-17.891-.4-2.758a21.772,21.772,0,0,1-2.947-10.082q-6.659-19.423-13.326-38.873C743.1,424,740.033,415.1,736.636,406.337c-3.765-7.234-7.5-14.485-10.01-22.267a8.118,8.118,0,0,1-2.471-5.382,1.678,1.678,0,0,1-.593-1.447,331.2,331.2,0,0,1-21.422-48.488c-4.969-10.9-9.04-22.1-10.981-33.976a186.908,186.908,0,0,1-7.377-70.288,30.826,30.826,0,0,1,.836-7.881c-.144-4.4-.566-8.833,1.51-12.976,2.893-24.6,12.562-46.43,27.12-66.244,11.026-18.26,26.032-32.925,42.656-45.883,43.78-34.147,93.355-52.775,149.122-50.591,58.382,2.291,104.794,27.865,137.656,76.83v.009a74.25,74.25,0,0,1,11.116,16.633l.018.036c11.331,16.328,20.722,33.76,29.105,51.768,8.878,14.018,14.423,29.636,21.36,44.589a14.018,14.018,0,0,1,3.2,7.125l-.036-.009a355.252,355.252,0,0,1,19.437,44.921v.008a23.875,23.875,0,0,1,4.331,10.316,240.49,240.49,0,0,1,13.506,33.446,299.53,299.53,0,0,1,14.09,36.132v-.009a23.93,23.93,0,0,1,3.594,9.507c1.689,1.914,2.237,4.3,2.732,6.7,2.822,6.254,5.6,12.535,6.919,19.338a236.969,236.969,0,0,1,12.85,34.048,332.052,332.052,0,0,1,14.944,41.434c3.307,5.68,5.14,11.889,6.641,18.215,1.51,1.348,1.9,3.181,2.139,5.068l.449,1.69c2.956,9.669,8.339,18.484,10.145,28.575a244.634,244.634,0,0,1,12.868,35.719,64.538,64.538,0,0,1,6,16.507c4.5,11.143,9.273,22.2,11.888,33.985v.009c1.771,5.553,5.634,10.307,6.236,16.3,1.654,1.2,1.743,2.975,1.743,4.772a65.053,65.053,0,0,1,6.129,16.3c5.895,14.4,11.619,28.845,16.247,43.7l2.408,6.272.728,1.834a85.1,85.1,0,0,1,6.731,17.756q6.416,16.2,12.859,32.413c3.738,7.889,7.422,15.807,9.678,24.289,4.969,9.983,9.966,19.948,12.985,30.75,5.616,11.547,11.268,23.067,16.822,34.641,1.141,2.372,3.118,4.475,2.786,7.413q3.99,7.292,7.962,14.611l1.7,3.226a11.374,11.374,0,0,1,3.37,6.415,94.055,94.055,0,0,1,11.223,21.054,167.913,167.913,0,0,1,14.62,30.615,30.8,30.8,0,0,1,4.915,11.359v.018c3.7,7.773,8.411,15.2,8.339,24.271,6.4,6.83,7.027,15.978,9.759,24.28,1.4,1.294,1.285,3.028,1.348,4.7v.018a84.27,84.27,0,0,1,6.47,22.573,75.937,75.937,0,0,1,5.077,21.243c8.743,36.366,11.951,73.137,8.006,110.42-.216,4.861.342,9.839-1.815,14.458-.827,10.154-2.453,20.129-6.362,29.608-2.139,4.772-1.375,10.478-4.807,14.809a43.6,43.6,0,0,1-6.515,15.69,3.776,3.776,0,0,1-1.635,3.406,80.615,80.615,0,0,1-12.212,20.766,4.129,4.129,0,0,1-1.015,1.223c-17.532,25.853-41.713,43.177-70.468,54.455-51.957,20.407-104.094,24.118-156.158.575-39.026-17.64-69.264-46.134-95.548-79.22-8.842-11.116-17.594-22.349-24.442-34.893a392.872,392.872,0,0,1-34-59.9,257.273,257.273,0,0,1-16-32.753,12.56,12.56,0,0,1-3.163-6.65,18.091,18.091,0,0,1-3.477-7.593,116.21,116.21,0,0,1-9.642-21.243,283.779,283.779,0,0,1-14.342-32.682c-1.806-2.776-3.666-5.517-3.531-9.057v-.009c-1.114-2.337-2.247-4.681-3.37-7.018a14.676,14.676,0,0,1-2.938-8.1,429.985,429.985,0,0,1-19.554-49.819c-2.786-4.026-4-8.644-5.14-13.3a148.015,148.015,0,0,1-9.507-25.943,105.34,105.34,0,0,1-7.962-22.537,114.7,114.7,0,0,1-8.141-24.064,3.209,3.209,0,0,1-.458-1.213q-1.658-4.38-3.325-8.77l-1.33-4.871c-2.318-6.451-4.628-12.894-7.018-19.544-3.783,1.941-1.249,6.29-3.72,8.429a228.2,228.2,0,0,1-8.168,38.639,325.977,325.977,0,0,1-11.475,46.781c-2.714,11.529-5.095,23.175-9.6,34.21v.009a171.618,171.618,0,0,1-9.651,30.93c-5.311,16.669-9.957,33.545-16.939,49.639-2.22,6.164-3.783,12.607-7.369,18.214a6.446,6.446,0,0,1-1.752,4.628,201.559,201.559,0,0,1-12.742,29.672v.009a362.421,362.421,0,0,1-26.131,52.775,301.912,301.912,0,0,1-30.57,49.108c-27.075,40.643-61.177,73.514-105.037,95.835-32.493,16.552-66.334,28.316-103.087,29.942-2.992.134-5.953.2-8.9.2C492.179,1319.581,451.09,1302.705,414.9,1272.369Zm-69.381-101.685a4.822,4.822,0,0,0-1.258-.27A9.255,9.255,0,0,0,345.522,1170.684Zm1025.353-9.166c-.117-.234-.207-.485-.314-.737A1.514,1.514,0,0,0,1370.875,1161.518Zm-9.48-18.691.072.17-.027-.216Zm-581.823-5.2c.171-.179.3-.35.458-.521l-.4-.134C779.616,1137.193,779.6,1137.39,779.571,1137.624Zm601.215-41.344.117.1-.009-.341Zm-573.215-16.471a2.994,2.994,0,0,1,.216.359c.153-.2.3-.386.467-.584C808.021,1079.673,807.8,1079.736,807.572,1079.808ZM992.3,1071.9l.018-.036c-.036-.027-.063-.063-.108-.072H992.2Zm-712.462-43.851h.036l.108-.108v-.072Zm.144-5.3v-.126C279.916,1022.693,279.889,1022.748,279.978,1022.748Zm554.614-4.161a11.17,11.17,0,0,1,1.878-.459c.054-.656.09-1.32.09-1.995A9.126,9.126,0,0,0,834.592,1018.587Zm520.4-6.668.009-.062-.054-.009Zm1.626-9.777.027-.072-.027-.018Zm-133.963-8.905a7.542,7.542,0,0,0,6.021-.089C1226.668,993.156,1224.656,993.2,1222.652,993.237Zm-441.8-3.756c2.4-.251,4.8-.43,7.189-.485a11.077,11.077,0,0,0-3.337-.526A6.834,6.834,0,0,0,780.847,989.481Zm-289.923-.26a9,9,0,0,0-7.6-.027q1.77-.064,3.549-.065Q488.9,989.129,490.924,989.221Zm222.861-32.907.3.387c.153-.4.306-.782.494-1.232C714.288,955.748,714.037,956.035,713.785,956.314Zm223.841-11.933.072-.036-.063-.108Zm-696.5-23.192h.009c.18-.18.377-.351.566-.531l-.306-.458-.27.989Zm0,0-.512-.746A1.981,1.981,0,0,0,241.123,921.188ZM1324.454,810.13a12.179,12.179,0,0,0,1.267-2.237A4.024,4.024,0,0,0,1324.454,810.13Zm-738.5-99.456.027.054a.618.618,0,0,1-.072.458l.135.018c-.018-.153-.036-.324-.063-.476v-.009l.009-.062Zm.422.252a.735.735,0,0,0-.4-.208C586.112,710.79,586.238,710.854,586.373,710.926ZM141.082,663.632l.18-.045-.081-.216ZM101.9,566.61l.009.018.189.054-.225-.288A1.564,1.564,0,0,0,101.9,566.61Zm675.341-51.067.063-.108-.072-.018Zm430.383-1.617.126.081-.045-.162ZM484.131,428.9l.009.009a3.227,3.227,0,0,1,.926-.458A1.937,1.937,0,0,0,484.131,428.9ZM704.188,328.7l-.027-.081v.027h-.018Zm-271.6-28.288.09.108a4.309,4.309,0,0,1,.836-.728A1.219,1.219,0,0,0,432.587,300.41Zm687.445-10.675.207.054.009-.2Zm1.429-9.7.117-.233C1121.29,279.913,1121.137,280.074,1121.461,280.038Zm-707.609-2.992c1.779-.1,3.226-.62,3.819-2.121C416.134,275.789,414.894,276.49,413.851,277.047Zm1038.706,947.561c5.212-6.263,10.559-13.209,16.822-21.9a471.953,471.953,0,0,0,30.562-48.5c3.352-6.093,6.578-12.257,9.669-18.439,3.963-7.917,7.872-16.337,12.3-26.509,4.574-10.432,8.366-19.76,11.655-28.512a504.355,504.355,0,0,0,16.247-51.22,534.863,534.863,0,0,0,11.583-58.095,438.409,438.409,0,0,0,4.2-52.99c1.24-75.5-19.679-132.346-35.521-168.533-9.633-22.024-20.138-42.27-30.292-61.868l-1.105-2.13a183.76,183.76,0,0,1-11.232-26.509c-1.546-4.582-2.929-9.336-4.134-14.171-1.2-4.78-2.211-9.74-3.046-14.692a183.156,183.156,0,0,1,1.465-67.638c.467-2.246,1-4.466,1.537-6.677a187.838,187.838,0,0,1,74.5-109.251,182.816,182.816,0,0,1,64.6-28.764c6.11-1.4,12.455-2.516,18.826-3.324l.225-.018a187.482,187.482,0,0,1,23.085-1.438c89.347,0,166.312,63.828,183.008,151.764,9.309,49.19-13.991,169.512-34.812,234.121-29.968,92.987-117.482,271.952-367.6,433.942C1447.615,1230.449,1450.1,1227.547,1452.558,1224.608ZM1317.265,174.687a174.683,174.683,0,1,1,174.678,174.678A174.684,174.684,0,0,1,1317.265,174.687Z" transform="translate(117.553 206.315)" stroke="rgba(0,0,0,0)" stroke-miterlimit="10" stroke-width="1" fill="url(#linear-gradient)"/>
      </g>
    </g>
  </g>
</svg>
