<svg xmlns="http://www.w3.org/2000/svg" width="44.715" height="20.947" viewBox="0 0 44.715 20.947">
  <g id="bg-trial" transform="translate(0.038 0.001)" fill="#31e8a2">
    <path d="M 42.67710113525391 20.69569969177246 L 6.878700733184814 20.69569969177246 C 5.91386079788208 20.69569969177246 5.12890100479126 19.91073989868164 5.12890100479126 18.94589996337891 L 5.12890100479126 16.2180004119873 L 5.12890100479126 16.11445045471191 L 5.055680751800537 16.04121971130371 L 0.7248809337615967 11.71041965484619 C 0.04248093813657761 11.02801990509033 0.04248093813657761 9.917679786682129 0.7248809337615967 9.23528003692627 L 5.055690765380859 4.903819561004639 L 5.12890100479126 4.830599784851074 L 5.12890100479126 4.727059841156006 L 5.12890100479126 1.999799728393555 C 5.12890100479126 1.034459710121155 5.91386079788208 0.2490997165441513 6.878700733184814 0.2490997165441513 L 42.67710113525391 0.2490997165441513 C 43.64194107055664 0.2490997165441513 44.42690277099609 1.034459710121155 44.42690277099609 1.999799728393555 L 44.42690277099609 18.94589996337891 C 44.42690277099609 19.91073989868164 43.64194107055664 20.69569969177246 42.67710113525391 20.69569969177246 Z" stroke="none"/>
    <path d="M 42.67710113525391 20.44569969177246 C 43.50408935546875 20.44569969177246 44.17690277099609 19.77289009094238 44.17690277099609 18.94589996337891 L 44.17690277099609 1.999799728393555 C 44.17690277099609 1.172309756278992 43.50408935546875 0.4990997016429901 42.67710113525391 0.4990997016429901 L 6.878700733184814 0.4990997016429901 C 6.051711082458496 0.4990997016429901 5.37890100479126 1.172309756278992 5.37890100479126 1.999799728393555 L 5.37890100479126 4.934149742126465 L 0.9016509652137756 9.412049293518066 C 0.3167309463024139 9.996979713439941 0.3167309463024139 10.94871997833252 0.9016509652137756 11.53364944458008 L 5.37890100479126 16.01088905334473 L 5.37890100479126 18.94589996337891 C 5.37890100479126 19.77289009094238 6.051711082458496 20.44569969177246 6.878700733184814 20.44569969177246 L 42.67710113525391 20.44569969177246 M 42.67710113525391 20.94569969177246 L 6.878700733184814 20.94569969177246 C 5.77440071105957 20.94569969177246 4.87890100479126 20.05019950866699 4.87890100479126 18.94589996337891 L 4.87890100479126 16.2180004119873 L 0.5481009483337402 11.88719940185547 C -0.2330990582704544 11.10599994659424 -0.2330990582704544 9.839699745178223 0.5481009483337402 9.058499336242676 L 4.87890100479126 4.727059841156006 L 4.87890100479126 1.999799728393555 C 4.87890100479126 0.8945997357368469 5.77440071105957 -0.0009002884034998715 6.878700733184814 -0.0009002884034998715 L 42.67710113525391 -0.0009002884034998715 C 43.78140258789062 -0.0009002884034998715 44.67690277099609 0.8945997357368469 44.67690277099609 1.999799728393555 L 44.67690277099609 18.94589996337891 C 44.67690277099609 20.05019950866699 43.78140258789062 20.94569969177246 42.67710113525391 20.94569969177246 Z" stroke="none" fill="#e6eaf0"/>
  </g>
</svg>
