<svg xmlns="http://www.w3.org/2000/svg" width="60" height="60" viewBox="0 0 60 60">
  <g id="camera" transform="translate(-1635 -423)">
    <g id="Ellipse_43" data-name="Ellipse 43" transform="translate(1638 426)" fill="rgba(157,157,157,0.7)" stroke="#fff" stroke-width="3">
      <circle cx="27" cy="27" r="27" stroke="none"/>
      <circle cx="27" cy="27" r="28.5" fill="none"/>
    </g>
    <g id="camera-2" data-name="camera" transform="translate(1651.059 440.454)">
      <g id="Path_1392" data-name="Path 1392" transform="translate(0)" fill="none" stroke-linecap="round" stroke-linejoin="round">
        <path d="M27.881,22.3a2.788,2.788,0,0,1-2.788,2.788H2.788A2.788,2.788,0,0,1,0,22.3V6.97A2.8,2.8,0,0,1,2.788,4.182H6.97L9.758,0h8.364l2.788,4.182h4.182A2.788,2.788,0,0,1,27.881,6.97Z" stroke="none"/>
        <path d="M 25.09282493591309 25.09282112121582 C 26.63263511657715 25.09282112121582 27.88091468811035 23.84455108642578 27.88091468811035 22.30473136901855 L 27.88091468811035 6.970230579376221 C 27.88091468811035 5.430410385131836 26.63264465332031 4.182140350341797 25.09282493591309 4.182140350341797 L 20.91068458557129 4.182140350341797 L 18.12259483337402 5.606079298559052e-07 L 9.758315086364746 5.606079298559052e-07 L 6.97022533416748 4.182140350341797 L 2.788095474243164 4.182140350341797 C 1.254645466804504 4.182140350341797 5.436706487671472e-06 5.436780452728271 5.436706487671472e-06 6.970230579376221 L 5.436706487671472e-06 22.30473136901855 C 5.436706487671472e-06 23.84455108642578 1.248275399208069 25.09282112121582 2.788095474243164 25.09282112121582 L 25.09282493591309 25.09282112121582 M 25.09282493591309 28.09282112121582 L 2.788095474243164 28.09282112121582 C -0.4034645557403564 28.09282112121582 -2.999994516372681 25.49629020690918 -2.999994516372681 22.30473136901855 L -2.999994516372681 6.970230579376221 C -2.999994516372681 3.7786705493927 -0.4034645557403564 1.182140588760376 2.788095474243164 1.182140588760376 L 5.36467456817627 1.182140588760376 L 7.262165546417236 -1.664099454879761 C 7.818565368652344 -2.498699426651001 8.755255699157715 -2.999999523162842 9.758315086364746 -2.999999523162842 L 18.12259483337402 -2.999999523162842 C 19.12565612792969 -2.999999523162842 20.06234550476074 -2.498699426651001 20.61874580383301 -1.664099454879761 L 22.51623725891113 1.182140588760376 L 25.09282493591309 1.182140588760376 C 28.28438568115234 1.182140588760376 30.88091468811035 3.7786705493927 30.88091468811035 6.970230579376221 L 30.88091468811035 22.30473136901855 C 30.88091468811035 25.49629020690918 28.28438568115234 28.09282112121582 25.09282493591309 28.09282112121582 Z" stroke="none" fill="#fff"/>
      </g>
      <g id="Ellipse_44" data-name="Ellipse 44" transform="translate(8.823 8.822)" fill="none" stroke="#fff" stroke-linecap="round" stroke-linejoin="round" stroke-width="3">
        <circle cx="5.78" cy="5.78" r="5.78" stroke="none"/>
        <circle cx="5.78" cy="5.78" r="7.28" fill="none"/>
      </g>
    </g>
  </g>
</svg>
