<svg id="child" xmlns="http://www.w3.org/2000/svg" width="79.269" height="72.488" viewBox="0 0 79.269 72.488">
  <g id="Group_6381" data-name="Group 6381">
    <path id="Path_31709" data-name="Path 31709" d="M134.392,239.375a7.653,7.653,0,0,0-15.305,0h4.645a3.008,3.008,0,0,1,6.016,0Z" transform="translate(-100.431 -198.811)" fill="#4d25b9"/>
    <path id="Path_31710" data-name="Path 31710" d="M296.863,231.721a7.661,7.661,0,0,0-7.653,7.653h4.645a3.008,3.008,0,0,1,6.016,0h4.645A7.661,7.661,0,0,0,296.863,231.721Z" transform="translate(-243.902 -198.81)" fill="#4d25b9"/>
    <path id="Path_31711" data-name="Path 31711" d="M192.78,345.2a8.381,8.381,0,0,1-7.186-4.11l-4,2.36a12.981,12.981,0,0,0,22.372,0l-4-2.36A8.38,8.38,0,0,1,192.78,345.2Z" transform="translate(-153.145 -291.041)" fill="#4d25b9"/>
    <path id="Path_31712" data-name="Path 31712" d="M76.247,53.98a10.265,10.265,0,0,0-5.353-2.837,32.912,32.912,0,0,0-31.26-22.719H38.077A6.789,6.789,0,0,1,31.3,21.643H26.652a11.364,11.364,0,0,0,2.237,6.781H27.417a6.789,6.789,0,0,1-6.781-6.781H15.991a11.443,11.443,0,0,0,7.836,10.845A32.858,32.858,0,0,0,8.375,51.144a10.319,10.319,0,0,0,0,20.268,32.865,32.865,0,0,0,62.519,0A10.32,10.32,0,0,0,76.247,53.98ZM69.064,66.947l-1.743.033-.455,1.683a28.218,28.218,0,0,1-54.463,0l-.455-1.683L10.2,66.947a5.7,5.7,0,0,1-5.56-5.67,5.667,5.667,0,0,1,5.56-5.67l1.743-.033.455-1.683A28.25,28.25,0,0,1,39.635,33.069a7.613,7.613,0,1,1-7.613,7.613H27.377a12.257,12.257,0,1,0,23.275-5.366A28.223,28.223,0,0,1,66.866,53.892l.455,1.683,1.743.033a5.671,5.671,0,0,1,0,11.34Z" transform="translate(0 -21.643)" fill="#4d25b9"/>
  </g>
</svg>
