<svg id="coach" xmlns="http://www.w3.org/2000/svg" width="65.935" height="72.488" viewBox="0 0 65.935 72.488">
  <g id="Group_6383" data-name="Group 6383">
    <path id="Path_31719" data-name="Path 31719" d="M86.177,50.938a14.445,14.445,0,0,0-7.533-5.24L65.711,41.665a2.223,2.223,0,0,0-.712-.1,3,3,0,0,1-.8-1.946V36.7a16.557,16.557,0,0,0,1.636-1.244,13.27,13.27,0,0,0,4.474-8.817,3.458,3.458,0,0,0,3.354-3.452V20.539A3.446,3.446,0,0,0,72.443,17.9V14.478a1.064,1.064,0,1,0-2.127,0v2.285l-.268-.088-.405-.133q-.265-.085-.53-.167c-.133-.041-.266-.082-.4-.122-.182-.055-.365-.107-.548-.159-.127-.036-.255-.074-.382-.109-.2-.054-.394-.106-.591-.158-.114-.03-.227-.061-.34-.09-.251-.064-.5-.124-.754-.184l-.179-.043q-.466-.108-.932-.205l-.283-.056c-.218-.044-.435-.088-.653-.129l-.362-.065c-.192-.034-.384-.068-.577-.1l-.39-.061c-.184-.029-.368-.057-.552-.083l-.4-.055q-.272-.036-.544-.069l-.4-.047q-.271-.03-.543-.056l-.4-.038c-.184-.016-.368-.031-.551-.045l-.392-.029c-.191-.013-.382-.023-.573-.033l-.369-.019c-.211-.009-.421-.016-.632-.022l-.31-.01q-.471-.01-.941-.011t-.941.011l-.311.01c-.21.006-.421.013-.631.022l-.371.019c-.191.01-.381.02-.572.033l-.393.029c-.183.014-.367.028-.551.045l-.4.038q-.271.027-.541.056l-.406.047q-.271.032-.541.069l-.4.055c-.183.026-.366.054-.549.083l-.392.062c-.191.032-.382.065-.573.1-.122.022-.244.042-.366.065-.216.04-.432.084-.648.128l-.289.058q-.466.1-.931.205l-.189.046c-.248.058-.5.118-.743.181-.116.029-.232.061-.348.092-.194.051-.388.1-.583.156-.13.036-.26.074-.39.111-.18.052-.36.1-.54.157l-.407.125q-.261.08-.521.164l-.415.136-.262.086V9.5a5.419,5.419,0,0,1,4.178-5.29l7.765-1.848a8.77,8.77,0,0,1,3.97-.016l8.278,1.9a5.411,5.411,0,0,1,4.222,5.3,1.064,1.064,0,0,0,2.127,0,7.529,7.529,0,0,0-5.874-7.373L58.291.273a10.912,10.912,0,0,0-4.939.021L45.587,2.142A7.539,7.539,0,0,0,39.774,9.5v8.4a3.446,3.446,0,0,0-1.223,2.635v2.648a3.458,3.458,0,0,0,3.354,3.452,13.269,13.269,0,0,0,4.474,8.817A16.555,16.555,0,0,0,48.016,36.7v2.919a3,3,0,0,1-.8,1.946,2.215,2.215,0,0,0-.712.1L33.573,45.7A14.55,14.55,0,0,0,23.141,59.653v.793a1.064,1.064,0,1,0,2.127,0v-.793a12.422,12.422,0,0,1,8.913-11.916l.016,0,6.888-2.148,5.754,6.567a4.26,4.26,0,0,0,4.591,1.228l1.3-.443,1.832,3.869a4.445,4.445,0,0,0-1.531.986,4.582,4.582,0,0,0-1.368,3.249v6.5a1.551,1.551,0,0,0,1.549,1.549h2.665a1.551,1.551,0,0,0,1.549-1.549V65.207a4.442,4.442,0,0,0,.229-8.407l1.83-3.864,1.3.443a4.26,4.26,0,0,0,4.591-1.229l5.754-6.567,6.888,2.148.016,0a12.422,12.422,0,0,1,8.913,11.916v9.1a1.607,1.607,0,0,1-1.6,1.6H80.007V60.175a1.064,1.064,0,0,0-2.127,0V70.361H34.337V60.175a1.064,1.064,0,1,0-2.127,0V70.361H26.873a1.607,1.607,0,0,1-1.6-1.6V65.395a1.064,1.064,0,0,0-2.127,0v3.361a3.737,3.737,0,0,0,3.732,3.732h58.47a3.737,3.737,0,0,0,3.732-3.732v-9.1A14.446,14.446,0,0,0,86.177,50.938ZM43.024,18.632l.262-.083c.211-.068.421-.135.632-.2.112-.034.224-.066.337-.1.187-.055.374-.111.562-.163.122-.034.245-.067.367-.1.178-.048.355-.1.533-.142.128-.033.257-.065.385-.1.172-.043.345-.086.517-.126l.4-.09q.254-.057.508-.112l.4-.083q.252-.051.5-.1l.406-.075q.251-.045.5-.087l.408-.067q.251-.039.5-.076l.407-.057c.169-.023.338-.044.506-.065.134-.016.269-.033.4-.048.171-.019.342-.036.514-.054.132-.013.264-.027.4-.039.176-.016.351-.029.527-.043.128-.01.255-.021.383-.029.184-.012.367-.022.551-.032.119-.006.239-.014.358-.02.2-.009.406-.015.609-.021l.3-.01q.454-.01.909-.011h0q.453,0,.907.01c.1,0,.2.007.3.01.2.006.4.012.606.021.121.006.243.013.364.02.182.01.364.019.545.032.129.009.259.02.388.03.174.013.347.027.521.042.134.012.268.026.4.039.169.017.338.034.507.053l.408.049c.167.02.334.041.5.064l.413.058q.248.036.5.075l.414.067q.247.041.495.086l.413.076q.248.047.5.1l.411.085q.25.053.5.11l.4.092c.169.04.337.081.506.123.132.033.264.065.4.1.173.045.346.092.518.138l.382.1c.181.051.361.1.542.158.119.035.237.069.356.1.2.061.4.125.6.188l.3.094q.415.136.829.281l.064.022.008,0-.273,1.016a1.406,1.406,0,0,1-.683.873,1.385,1.385,0,0,1-1.085.114q-.743-.228-1.488-.428a39.92,39.92,0,0,0-22.409.428,1.384,1.384,0,0,1-1.085-.114,1.438,1.438,0,0,1-.236-.163,1.406,1.406,0,0,1-.448-.71l-.134-.5-.14-.519Q42.571,18.78,43.024,18.632Zm4.744,15.212a11.221,11.221,0,0,1-3.8-8.29,1.064,1.064,0,0,0-1.064-1.041H42a1.327,1.327,0,0,1-1.326-1.326V21.342l.01.017q.048.084.1.165l.036.054q.047.069.1.135l.033.044c.043.056.088.111.135.164l.033.036q.057.063.117.123l.048.047q.064.062.131.121l.029.026c.055.047.111.092.169.135l.047.034c.046.033.092.066.139.1l.052.034c.062.04.126.078.191.114l.009,0c.057.032.116.061.174.089l.061.028q.064.029.128.056l.068.027c.044.017.088.033.133.048l.061.021c.064.021.128.04.192.056l.024.006c.057.015.115.027.173.039l.066.012.134.022.072.009c.046.006.093.01.139.013l.062,0c.066,0,.132.006.2.006h.027c.069,0,.138,0,.208-.008l.06,0c.076-.006.153-.014.229-.026l.016,0c.071-.011.143-.025.214-.04l.064-.014c.072-.017.144-.036.216-.058l.011,0a39.6,39.6,0,0,1,5.652-1.3,37.494,37.494,0,0,1,13.466.385q1.768.372,3.529.913a3.492,3.492,0,0,0,2.739-.286c.065-.036.128-.074.19-.114l.054-.036q.07-.046.137-.1l.048-.035c.057-.043.114-.088.168-.135l.029-.026q.068-.059.132-.122l.047-.046q.061-.061.118-.125l.031-.034q.071-.08.136-.165l.032-.043q.05-.067.1-.136l.036-.054c.035-.054.068-.108.1-.163l.011-.018v1.845a1.327,1.327,0,0,1-1.326,1.326h-.9a1.064,1.064,0,0,0-1.064,1.041,11.221,11.221,0,0,1-3.8,8.29A14.074,14.074,0,0,1,62.6,35.2l-.011.006c-.1.06-.2.117-.3.174l-.094.054q-.158.089-.317.172l-.086.045a12.57,12.57,0,0,1-1.488.65l-.038.014q-.573.2-1.164.353l-.033.009c-.113.028-.226.054-.34.078l-.142.03c-.1.022-.209.042-.313.061l-.2.032q-.216.035-.434.064c-.1.013-.2.025-.3.036l-.215.02q-.161.014-.322.024l-.187.011c-.16.008-.322.014-.484.016h-.054c-.162,0-.323-.008-.484-.016l-.187-.011q-.162-.01-.322-.024l-.215-.02c-.1-.01-.2-.023-.3-.036q-.218-.028-.434-.064l-.2-.032c-.1-.019-.209-.04-.313-.061l-.142-.03c-.114-.025-.227-.05-.34-.078l-.033-.009q-.591-.148-1.164-.353l-.038-.014a12.571,12.571,0,0,1-1.488-.65L50.34,35.6q-.159-.084-.317-.172l-.094-.054c-.1-.057-.2-.115-.3-.174L49.62,35.2A14.086,14.086,0,0,1,47.768,33.844Zm2.977,17.521a2.138,2.138,0,0,1-2.305-.617l-5.132-5.857L47.139,43.7a.1.1,0,0,1,.014,0,.1.1,0,0,1,.036,0l.006,0a.1.1,0,0,1,.029.015s.009,0,.012.007h0l6.863,6.5Zm7.681,9.6a2.325,2.325,0,0,1-2.142,2.31,1.064,1.064,0,0,0-.985,1.061v2.623H53.791V61.039a2.441,2.441,0,0,1,.731-1.731,2.259,2.259,0,0,1,1.632-.663A2.329,2.329,0,0,1,58.426,60.963Zm-3.668-8.718,1.35-.46,1.35.46L56.108,55.1Zm1.35-3.049-6.976-6.611a5.121,5.121,0,0,0,1.011-2.966V37.878a14.392,14.392,0,0,0,2.885.954l.01,0q.316.068.637.123l.223.037c.105.016.21.032.316.046.143.019.287.036.432.051l.194.019q.266.025.535.04l.12.006c.2.01.4.017.6.019h.024c.2,0,.4-.009.6-.019l.12-.006q.269-.015.535-.04l.194-.019q.217-.023.432-.051c.106-.014.211-.03.316-.046l.223-.037q.321-.055.637-.123l.01,0a14.392,14.392,0,0,0,2.885-.954v1.741a5.121,5.121,0,0,0,1.011,2.966Zm7.669,1.552a2.137,2.137,0,0,1-2.305.617l-3.354-1.142L63.8,44.836l1.179-1.118.006,0a.1.1,0,0,1,.034-.018l.007,0a.1.1,0,0,1,.05,0l3.832,1.195Z" transform="translate(-23.141 0)" fill="#4d25b9"/>
  </g>
</svg>
