<svg id="couple" xmlns="http://www.w3.org/2000/svg" width="79.749" height="75.602" viewBox="0 0 79.749 75.602">
  <g id="Group_6387" data-name="Group 6387" transform="translate(0 0)">
    <g id="Group_6386" data-name="Group 6386">
      <path id="Path_31723" data-name="Path 31723" d="M38.369,53.451l-8.385-2.516v-3.4A13.6,13.6,0,0,0,35.477,37.6,3.921,3.921,0,0,0,36.9,30.854v-8.08a6.692,6.692,0,0,0-2.961-5.529,5.278,5.278,0,0,0-5.12-3.933H17.757A10.857,10.857,0,0,0,6.912,24.157v6.7A3.921,3.921,0,0,0,8.331,37.6a13.6,13.6,0,0,0,5.493,9.938v3.4L3.788,53.946A5.283,5.283,0,0,0,0,59.037v13.5a1.168,1.168,0,0,0,1.168,1.168h.214V87.746a1.168,1.168,0,0,0,2.336,0V73.708H8.294V87.746a1.168,1.168,0,0,0,2.336,0V65.628a1.167,1.167,0,0,0-.123-.522L7.743,59.576a1.168,1.168,0,1,0-2.09,1.045L8.294,65.9v5.468H2.336V59.037a2.961,2.961,0,0,1,2.123-2.853l4.2-1.259a13.61,13.61,0,0,0,26.5,0l2.547.764a1.168,1.168,0,0,0,.671-2.238ZM10.631,36.6A1.168,1.168,0,0,0,9.462,35.43a1.6,1.6,0,0,1-1.6-1.6,1.578,1.578,0,0,1,.8-1.372c.026-.015.049-.033.074-.05a1.593,1.593,0,0,1,.721-.175h1.768a2.547,2.547,0,0,0,2.42-1.744l.8-2.414c2.746-.061,11.4-.445,16.265-2.877a1.168,1.168,0,1,0-1.045-2.09c-5.217,2.608-15.958,2.641-16.066,2.641a1.168,1.168,0,0,0-1.108.8l-1.067,3.2a.214.214,0,0,1-.2.146H9.462c-.071,0-.143,0-.214.007V24.157a8.518,8.518,0,0,1,8.508-8.508H28.816a2.957,2.957,0,0,1,2.928,2.511,1.168,1.168,0,0,0,.58.834,4.361,4.361,0,0,1,2.236,3.781v8.678a1.168,1.168,0,0,0,.581,1.01,1.578,1.578,0,0,1,.8,1.372,1.6,1.6,0,0,1-1.6,1.6A1.168,1.168,0,0,0,33.177,36.6a11.273,11.273,0,1,1-22.546,0ZM27.647,48.933V51.8a5.743,5.743,0,0,1-11.487.015c0-.006,0-.011,0-.017V48.933a13.58,13.58,0,0,0,11.487,0Zm1.606,11.419a11.273,11.273,0,0,1-18.354-6.1l3.071-.921a8.079,8.079,0,0,0,15.867,0l3.071.921A11.283,11.283,0,0,1,29.254,60.352Z" transform="translate(0 -13.312)" fill="#4d25b9"/>
    </g>
  </g>
  <g id="Group_6389" data-name="Group 6389" transform="translate(17.971 26.265)">
    <g id="Group_6388" data-name="Group 6388">
      <path id="Path_31724" data-name="Path 31724" d="M122.81,182.2a1.168,1.168,0,0,0-1.643.171,2.291,2.291,0,0,1-3.715,0,1.168,1.168,0,0,0-1.814,1.472,4.622,4.622,0,0,0,7.344,0A1.168,1.168,0,0,0,122.81,182.2Z" transform="translate(-115.377 -181.938)" fill="#4d25b9"/>
    </g>
  </g>
  <g id="Group_6391" data-name="Group 6391" transform="translate(15.206 19.353)">
    <g id="Group_6390" data-name="Group 6390">
      <path id="Path_31725" data-name="Path 31725" d="M98.793,137.562a1.168,1.168,0,0,0-1.168,1.168v1.382a1.168,1.168,0,0,0,2.336,0V138.73A1.168,1.168,0,0,0,98.793,137.562Z" transform="translate(-97.625 -137.562)" fill="#4d25b9"/>
    </g>
  </g>
  <g id="Group_6393" data-name="Group 6393" transform="translate(26.265 19.353)">
    <g id="Group_6392" data-name="Group 6392">
      <path id="Path_31726" data-name="Path 31726" d="M169.793,137.562a1.168,1.168,0,0,0-1.168,1.168v1.382a1.168,1.168,0,1,0,2.336,0V138.73A1.168,1.168,0,0,0,169.793,137.562Z" transform="translate(-168.625 -137.562)" fill="#4d25b9"/>
    </g>
  </g>
  <g id="Group_6395" data-name="Group 6395" transform="translate(55.295 33.177)">
    <g id="Group_6394" data-name="Group 6394">
      <path id="Path_31727" data-name="Path 31727" d="M362.435,226.572a1.168,1.168,0,0,0-1.643.171,2.291,2.291,0,0,1-3.715,0,1.168,1.168,0,0,0-1.814,1.472,4.622,4.622,0,0,0,7.344,0A1.168,1.168,0,0,0,362.435,226.572Z" transform="translate(-355.002 -226.311)" fill="#4d25b9"/>
    </g>
  </g>
  <g id="Group_6397" data-name="Group 6397" transform="translate(52.53 26.265)">
    <g id="Group_6396" data-name="Group 6396">
      <path id="Path_31728" data-name="Path 31728" d="M338.418,181.937a1.168,1.168,0,0,0-1.168,1.168v1.382a1.168,1.168,0,1,0,2.336,0v-1.382A1.168,1.168,0,0,0,338.418,181.937Z" transform="translate(-337.25 -181.937)" fill="#4d25b9"/>
    </g>
  </g>
  <g id="Group_6399" data-name="Group 6399" transform="translate(63.589 26.265)">
    <g id="Group_6398" data-name="Group 6398">
      <path id="Path_31729" data-name="Path 31729" d="M409.418,181.937a1.168,1.168,0,0,0-1.168,1.168v1.382a1.168,1.168,0,1,0,2.336,0v-1.382A1.168,1.168,0,0,0,409.418,181.937Z" transform="translate(-408.25 -181.937)" fill="#4d25b9"/>
    </g>
  </g>
  <g id="Group_6401" data-name="Group 6401" transform="translate(33.177 5.529)">
    <g id="Group_6400" data-name="Group 6400">
      <path id="Path_31730" data-name="Path 31730" d="M256.231,93.47l-9.479-3.792a1.62,1.62,0,0,1-.23-.114A58.019,58.019,0,0,0,256.082,87a1.168,1.168,0,0,0,.716-1.226,196.838,196.838,0,0,1-1.373-20.591,16.374,16.374,0,1,0-32.748,0A196.953,196.953,0,0,1,221.3,85.776,1.168,1.168,0,0,0,222.02,87a58.036,58.036,0,0,0,9.56,2.562,1.619,1.619,0,0,1-.23.114l-9.479,3.792a5.29,5.29,0,0,0-3.341,4.935v2.936h-3.193V95.874l2.641-5.283a1.168,1.168,0,0,0-2.09-1.045l-2.765,5.529A1.167,1.167,0,0,0,213,95.6v22.118a1.168,1.168,0,1,0,2.336,0V103.678h3.193v1.6a1.168,1.168,0,0,0,1.168,1.168h.214v11.272a1.168,1.168,0,0,0,2.336,0V106.442h3.193v11.273a1.168,1.168,0,1,0,2.336,0V102.51a1.168,1.168,0,0,0-2.336,0v1.6h-4.575v-5.7a2.965,2.965,0,0,1,1.873-2.766l4.66-1.864a12.229,12.229,0,0,0,23.305,0l4.66,1.864a2.965,2.965,0,0,1,1.873,2.766v5.7H252.66v-1.6a1.168,1.168,0,0,0-2.336,0v15.206a1.168,1.168,0,1,0,2.336,0V106.442h3.193v11.273a1.168,1.168,0,1,0,2.336,0V106.442h.214a1.168,1.168,0,0,0,1.168-1.168V98.405A5.29,5.29,0,0,0,256.231,93.47ZM225.013,65.185a14.038,14.038,0,0,1,28.076,0,195.416,195.416,0,0,0,1.282,19.953,69.447,69.447,0,0,1-8.622,2.2V85.325a13.49,13.49,0,0,0,1.852-1.256,13.578,13.578,0,0,0,5.06-10.589c0-6.8-4.929-7.783-9.695-8.729-3.048-.605-6.2-1.231-8.714-3.242a1.169,1.169,0,0,0-1.774.388,13.7,13.7,0,0,1-1.768,2.556c-.938,1.063-2.41,2.329-4.1,2.329A3.907,3.907,0,0,0,225,67.13C225.007,66.478,225.013,65.828,225.013,65.185Zm14.038,19.567a11.146,11.146,0,0,1-7.081-2.5,11.24,11.24,0,0,1-4.192-8.772,1.168,1.168,0,0,0-1.168-1.168,1.6,1.6,0,1,1,0-3.193c3.542,0,6.112-3.208,7.272-5,2.724,1.754,5.84,2.373,8.629,2.926,5.134,1.019,7.814,1.768,7.814,6.437a11.24,11.24,0,0,1-4.192,8.772A11.146,11.146,0,0,1,239.051,84.753Zm-15.32.385c.207-1.813.662-6.076.97-10.988a3.914,3.914,0,0,0,.777.332,13.586,13.586,0,0,0,6.875,10.843v2.011A69.425,69.425,0,0,1,223.731,85.138Zm15.32,14.821a9.885,9.885,0,0,1-9.477-7.053l2.644-1.057A3.914,3.914,0,0,0,234.69,88.2V86.367a13.526,13.526,0,0,0,8.723,0V88.2a3.914,3.914,0,0,0,2.472,3.652l2.644,1.058A9.885,9.885,0,0,1,239.051,99.959Z" transform="translate(-213 -48.811)" fill="#4d25b9"/>
    </g>
  </g>
</svg>
