<svg xmlns="http://www.w3.org/2000/svg" width="12.824" height="15.455" viewBox="0 0 12.824 15.455">
  <path id="icon-apple" d="M11,10.417a3.228,3.228,0,0,1,1.7-2.926A3.648,3.648,0,0,0,9.821,5.952c-1.21-.1-2.531.714-3.015.714-.511,0-1.683-.68-2.6-.68C2.3,6.018.281,7.522.281,10.583a8.7,8.7,0,0,0,.491,2.8c.436,1.266,2.01,4.372,3.652,4.32.859-.021,1.465-.618,2.583-.618,1.083,0,1.646.618,2.6.618,1.656-.024,3.08-2.847,3.5-4.116A3.428,3.428,0,0,1,11,10.417ZM9.075,4.751a3.278,3.278,0,0,0,.818-2.5,3.6,3.6,0,0,0-2.313,1.2,3.326,3.326,0,0,0-.872,2.481A2.849,2.849,0,0,0,9.075,4.751Z" transform="translate(-0.281 -2.25)"/>
</svg>
