<svg xmlns="http://www.w3.org/2000/svg" width="96.789" height="51.025" viewBox="0 0 96.789 51.025">
  <g id="logofooter" transform="translate(-426.406 -238.687)">
    <g id="Group_3687" data-name="Group 3687" transform="translate(426.406 238.687)">
      <g id="Group_3686" data-name="Group 3686" transform="translate(24.382 14.858)">
        <path id="Path_28696" data-name="Path 28696" d="M547.794,361.125a3.677,3.677,0,0,1,3.2,1.083,3.921,3.921,0,0,1,1.174,3.2,3.634,3.634,0,0,1-1.7,3.086,2.386,2.386,0,0,1-2.1.3,2.031,2.031,0,0,1-1.4-1.451,1.049,1.049,0,0,1,.576-1.382,1.2,1.2,0,0,1,1.5.23.766.766,0,0,0,.322-.23,1.2,1.2,0,0,0,.369-.737,1.313,1.313,0,0,0-.507-1.428,2.113,2.113,0,0,0-1.612-.092,4.079,4.079,0,0,0-1.428.875,5.483,5.483,0,0,0-1.382,3.409v.369q.138,1.475.184,4.054a13.529,13.529,0,0,1,.023,2.119,5.521,5.521,0,0,1-.438,2.027,1.187,1.187,0,0,1-1.151.645,1.41,1.41,0,0,1-1.152-.691.041.041,0,0,0-.046.046,3.656,3.656,0,0,1-.391-.921,7.01,7.01,0,0,1-.207-.852q-.047-.3-.092-1.105t-.046-.9q-.046-.736-.184-2.1t-.138-1.635q-.323-3.455-.875-7.232a1.286,1.286,0,0,1,.576-1.29.937.937,0,0,1,1.313.184,7.655,7.655,0,0,1,1.7,2.81A5.772,5.772,0,0,1,547.794,361.125Zm1.29,5.067a.749.749,0,0,1,.138.184A.686.686,0,0,1,549.084,366.192Z" transform="translate(-540.274 -349.145)" fill="#f9f9f9"/>
        <path id="Path_28697" data-name="Path 28697" d="M618.5,370.716a.913.913,0,0,1,1.106-.092.711.711,0,0,1,.414.967,14.41,14.41,0,0,1-.99,2.119,13.091,13.091,0,0,1-1.543,2.165,9.543,9.543,0,0,1-1.935,1.728,3.756,3.756,0,0,1-2.188.645,3.469,3.469,0,0,1-2.234-.944,4.912,4.912,0,0,1-1.29-1.889,5.979,5.979,0,0,1-3.962,1.843,5.292,5.292,0,0,1-3.5-.921,5.854,5.854,0,0,1-2.165-2.695,9.317,9.317,0,0,1-.622-3.57,7.229,7.229,0,0,1,.9-3.5,6.513,6.513,0,0,1,2.442-2.6,6.1,6.1,0,0,1,3.409-.944,6.039,6.039,0,0,1,4.883,2.211q.138-.322.461-.991t.461-.944q.322-.736,1.174-.368a.842.842,0,0,1,.576,1.152,48.853,48.853,0,0,0-1.428,5.528q-.738,3.593.323,5.205a1.312,1.312,0,0,0,.783.622,1.181,1.181,0,0,0,.921-.161,5.358,5.358,0,0,0,.921-.714,9.594,9.594,0,0,0,.944-1.06q.484-.622.852-1.152t.737-.99Q618.315,370.9,618.5,370.716Zm-13.267,2.534a6.357,6.357,0,0,0,.875.184,1.463,1.463,0,0,0,.806-.161,5.341,5.341,0,0,0,.737-.415,3.409,3.409,0,0,0,.645-.622q.346-.415.576-.714t.507-.714q.045-.276.092-.507a16.734,16.734,0,0,1,.783-2.856q-2.58-2.118-4.56-.967a3.7,3.7,0,0,0-1.52,1.75,4.525,4.525,0,0,0-.461,1.843v.875a.271.271,0,0,1,.046.184q.045.231.138.553.092.231.138.322A2.485,2.485,0,0,0,605.233,373.25Z" transform="translate(-586.888 -351.089)" fill="#f9f9f9"/>
        <path id="Path_28698" data-name="Path 28698" d="M693.085,325.354a10.075,10.075,0,0,1,.967,4.307,8.255,8.255,0,0,1-1.152,4.215,7.2,7.2,0,0,1-2.925,2.534,4.068,4.068,0,0,1-3.524.138,3.5,3.5,0,0,1-2.3-2.649,3.587,3.587,0,0,1,.967-3.386.917.917,0,0,1,1.52.921,1.747,1.747,0,0,0-.046,1.082,1.229,1.229,0,0,0,.6.944q.46.185,1.29-.507a4.6,4.6,0,0,0,1.428-4.56q-.461-3.086-3.086-3.086a3.771,3.771,0,0,0-3.5,1.75q0,.876.092,4.422a49.68,49.68,0,0,1-.046,5.251,1.427,1.427,0,0,1-1.29,1.474,1.661,1.661,0,0,1-1.013-.254,1.155,1.155,0,0,1-.6-.806q-.231-1.427-.415-6.081-.138-3.731-.184-6.081,0-.691-.069-2.441t-.069-2.695q0-.943.046-2.372t.184-2.626a17.745,17.745,0,0,1,.391-2,16.288,16.288,0,0,1,.714-2.119,5.079,5.079,0,0,1,1.267-1.866,2.829,2.829,0,0,1,1.819-.783,2.568,2.568,0,0,1,1.681.507,3.335,3.335,0,0,1,1.129,1.428,8.1,8.1,0,0,1-.138,4.422,15.4,15.4,0,0,1-3.777,6.818q.045.691.092,2.073a6.789,6.789,0,0,1,2.9-1.336,6.588,6.588,0,0,1,4.192.437A5.713,5.713,0,0,1,693.085,325.354ZM682.95,316q-.047.922,0,2.165a14.83,14.83,0,0,0,1.935-5.482q.322-2.026-.414-2.3-.6-.277-.967.921A17.439,17.439,0,0,0,682.95,316Z" transform="translate(-649.866 -308.076)" fill="#f9f9f9"/>
        <path id="Path_28699" data-name="Path 28699" d="M769.815,355.442a.922.922,0,0,1,1.313-.092.952.952,0,0,1,.3,1.29,12.728,12.728,0,0,1-1.174,1.981,10.752,10.752,0,0,1-1.543,1.7,7.41,7.41,0,0,1-1.82,1.221,4.053,4.053,0,0,1-2.073.345,4.7,4.7,0,0,1-2.234-.829,5.358,5.358,0,0,1-1.981-2.326,6.855,6.855,0,0,1-.645-3.109q.045-1.013.323-3.363a18.887,18.887,0,0,1,.6-3.363,1.589,1.589,0,0,1,1.036-1.036,1.564,1.564,0,0,1,1.405.161,1.424,1.424,0,0,1,.645,1.29,37.1,37.1,0,0,1-.322,5.205,5.42,5.42,0,0,0,.6,3.639,1.617,1.617,0,0,0,1.106.645,2.058,2.058,0,0,0,1.29-.415,10.1,10.1,0,0,0,1.2-.921q.506-.46,1.152-1.175A8.9,8.9,0,0,1,769.815,355.442Zm-5.3-10.641a1.612,1.612,0,0,1-1.566.921,1.565,1.565,0,0,1-1.543-.921,2,2,0,0,1,0-1.82,1.57,1.57,0,0,1,1.543-.9,1.618,1.618,0,0,1,1.566.9A1.915,1.915,0,0,1,764.518,344.8Z" transform="translate(-712.916 -334.801)" fill="#f9f9f9"/>
        <path id="Path_28700" data-name="Path 28700" d="M815.183,371.8a.819.819,0,0,1,1.2-.161.847.847,0,0,1,.461,1.129,10.7,10.7,0,0,1-3.086,4.169,9.855,9.855,0,0,1-4.606,2.188,9,9,0,0,1-4.238-.138,6.936,6.936,0,0,1-3.731-3.317,9.761,9.761,0,0,1-.99-3.593,9.07,9.07,0,0,1,.507-3.823,5.865,5.865,0,0,1,2.188-2.948,5.411,5.411,0,0,1,4.607-1.013q2.394.646,2.349,3.547a6.282,6.282,0,0,1-1.313,3.985,5.6,5.6,0,0,1-3.478,2.1,2.548,2.548,0,0,0,1.681,1.313,8.253,8.253,0,0,0,2.6.115,5.625,5.625,0,0,0,2.626-.829A17.831,17.831,0,0,0,815.183,371.8Zm-8.568-4.514a3.185,3.185,0,0,0-1.889,1.958,5.594,5.594,0,0,0-.276,3.017,4.721,4.721,0,0,0,2.856-2.3,3.353,3.353,0,0,0,.461-2.119q-.046-.6-.323-.714A1.076,1.076,0,0,0,806.615,367.287Z" transform="translate(-744.51 -352.128)" fill="#f9f9f9"/>
      </g>
      <path id="Path_28701" data-name="Path 28701" d="M432.813,275.234a.766.766,0,0,1-.766-.766V245.885a.766.766,0,0,1,1.531,0v28.583A.765.765,0,0,1,432.813,275.234Zm4.809-.766V245.885a.766.766,0,0,0-1.531,0v28.583a.766.766,0,0,0,1.531,0ZM440.9,245.12a.766.766,0,0,0-.766.765v28.583a.766.766,0,0,0,1.531,0V245.885A.765.765,0,0,0,440.9,245.12Zm3.307,33.856H429.469v1.907a1.531,1.531,0,0,1-3.063,0V249.118a10.431,10.431,0,0,1,20.862,0v31.765a1.531,1.531,0,0,1-3.063,0Zm0-1.531V249.118a7.368,7.368,0,1,0-14.737,0v28.327Z" transform="translate(-426.406 -238.687)" fill="#af8b62"/>
    </g>
    <path id="Path_28702" data-name="Path 28702" d="M727.38,259.84c-.262-.21-.522-.423-.787-.629-.882-.685-1.352-.6-1.614.46a22.894,22.894,0,0,0-.456,3.16c-.109,1.061-.139,2.131-.231,3.195a3.7,3.7,0,0,1-.229.753l-.293.044c-.254-.641-.563-1.266-.753-1.925A5.889,5.889,0,0,0,719.786,261c-1.187-.572-1.344-1.311-.717-2.525.324-.627.873-.92,1.366-.42a14.823,14.823,0,0,1,2.214,2.789,18.7,18.7,0,0,1,1.144,3.005c.169-1.613.282-3.019.477-4.415a4.828,4.828,0,0,1,.538-1.717c.236-.41.743-.96,1.095-.936a2.029,2.029,0,0,1,1.469.845,6.394,6.394,0,0,1,.342,2.077Z" transform="translate(-229.713 -14.222)" fill="#af8b62"/>
    <path id="Path_28703" data-name="Path 28703" d="M717.746,448.817c.349,1.18.055,1.688-.915,2.059-3.281,1.257-6.521,2.624-9.834,3.971a1.133,1.133,0,0,1,.552-1.525C710.918,451.812,714.3,450.335,717.746,448.817Z" transform="translate(-220.441 -165.136)" fill="#af8b62"/>
    <path id="Path_28704" data-name="Path 28704" d="M590.182,311.841c.349,1.18.055,1.688-.915,2.059-3.281,1.257-6.521,2.624-9.833,3.971a1.133,1.133,0,0,1,.552-1.525C583.353,314.836,586.737,313.359,590.182,311.841Z" transform="translate(-120.191 -57.49)" fill="#af8b62"/>
    <path id="Path_28705" data-name="Path 28705" d="M586.506,296.245c.4.145.673.252.95.34a1.876,1.876,0,0,1,1.33,2.719,1.25,1.25,0,0,1-1.57.909,1.761,1.761,0,0,1-.994-1.242A14.223,14.223,0,0,1,586.506,296.245Zm-.016,1.1a4.4,4.4,0,0,0,.578,1.446c.173.2.8,0,1.432-.028Z" transform="translate(-125.587 -45.233)" fill="#af8b62"/>
    <path id="Path_28706" data-name="Path 28706" d="M734.986,307.468c1.09,1.11.547,3.5,2.983,3.809-.27-1.492-1.7-2.65-.712-4.272a34.824,34.824,0,0,1,1.26,3.57,1.867,1.867,0,0,1-.629,2.212c-.56.346-1.341-.006-2.223-.891-.042.03-.111.053-.124.094-.263.816-.587,1.632-1.648,1.454-1.019-.17-1.142-1.054-1.209-1.891-.071-.877-.119-1.758-.139-2.638a7.458,7.458,0,0,1,.13-1.091l.274,0c.088.892.158,1.786.27,2.674.086.678.168,1.429,1.126,1.368.729-.047,1.049-.8.829-1.744-.2-.852-.361-1.713-.539-2.57Z" transform="translate(-240.587 -53.689)" fill="#af8b62"/>
  </g>
</svg>
