<svg xmlns="http://www.w3.org/2000/svg" xmlns:xlink="http://www.w3.org/1999/xlink" width="152.775" height="73.997" viewBox="0 0 152.775 73.997">
  <defs>
    <linearGradient id="linear-gradient" x1="-0.044" y1="0.5" x2="1.19" y2="0.5" gradientUnits="objectBoundingBox">
      <stop offset="0" stop-color="#5f00ab"/>
      <stop offset="0.027" stop-color="#5f00ab"/>
      <stop offset="0.44" stop-color="#0df"/>
      <stop offset="1" stop-color="#f8cd1a"/>
    </linearGradient>
  </defs>
  <g id="logoheader" transform="translate(-117.053 -205.815)">
    <g id="Group_1" data-name="Group 1" transform="translate(202.847 256.64)">
      <path id="Path_1" data-name="Path 1" d="M310.472,325.034a.511.511,0,1,1,0,1.022h-6.515a.675.675,0,0,1-.712-.681v-8.5a.672.672,0,0,1,.712-.665h6.531a.5.5,0,0,1-.016.99h-6.112v3.482h5.819a.5.5,0,0,1,0,.991h-5.819v3.358Z" transform="translate(-303.245 -316.058)" fill="#4d25b9"/>
      <path id="Path_2" data-name="Path 2" d="M324.769,325.483v-8.728a.535.535,0,0,1,.573-.542.527.527,0,0,1,.573.542v8.279H331.7a.516.516,0,1,1,0,1.022h-6.345C324.94,326.056,324.769,325.854,324.769,325.483Z" transform="translate(-314.882 -316.058)" fill="#4d25b9"/>
      <path id="Path_3" data-name="Path 3" d="M344.172,325.483v-8.728a.534.534,0,0,1,.572-.542.527.527,0,0,1,.573.542v8.279h5.788a.516.516,0,1,1,0,1.022H344.76C344.342,326.056,344.172,325.854,344.172,325.483Z" transform="translate(-325.373 -316.058)" fill="#4d25b9"/>
      <path id="Path_4" data-name="Path 4" d="M371.065,316.213a.517.517,0,0,1,.572.5v8.682a.661.661,0,0,1-.711.666.8.8,0,0,1-.681-.356l-5.788-7.676.124,2.135v5.324a.588.588,0,0,1-1.176,0v-8.589a.619.619,0,0,1,.619-.681.779.779,0,0,1,.635.355l5.958,7.831-.155-2.337v-5.354A.538.538,0,0,1,371.065,316.213Z" transform="translate(-335.771 -316.058)" fill="#4d25b9"/>
      <path id="Path_5" data-name="Path 5" d="M394.077,325.034a.511.511,0,1,1,0,1.022h-6.516a.675.675,0,0,1-.711-.681v-8.5a.672.672,0,0,1,.711-.665h6.531a.5.5,0,0,1-.015.99h-6.113v3.482h5.819a.5.5,0,0,1,0,.991h-5.819v3.358Z" transform="translate(-348.448 -316.058)" fill="#4d25b9"/>
      <path id="Path_6" data-name="Path 6" d="M407.677,323.428c.4,1.285,2.12,1.486,3.358,1.486,1.315,0,3.358-.325,3.358-1.888,0-1.346-1.625-1.455-3.327-1.594-2.135-.17-4.426-.372-4.426-2.677,0-2.043,2.352-2.879,4.24-2.879,1.625,0,3.653.31,4.3,2.074.232.619-.821.9-1.052.371-.465-1.176-2.121-1.3-3.235-1.3-1.037,0-3.049.34-3.049,1.749,0,1.346,1.547,1.486,3.343,1.625,2.12.186,4.4.294,4.4,2.615,0,2.368-2.646,3.018-4.55,3.018-1.579,0-3.993-.464-4.5-2.321C406.346,323.026,407.553,322.794,407.677,323.428Z" transform="translate(-359.079 -315.876)" fill="#4d25b9"/>
      <path id="Path_7" data-name="Path 7" d="M430.48,323.428c.4,1.285,2.12,1.486,3.358,1.486,1.316,0,3.359-.325,3.359-1.888,0-1.346-1.626-1.455-3.327-1.594-2.136-.17-4.426-.372-4.426-2.677,0-2.043,2.352-2.879,4.241-2.879,1.625,0,3.652.31,4.3,2.074.232.619-.82.9-1.052.371-.463-1.176-2.12-1.3-3.234-1.3-1.037,0-3.048.34-3.048,1.749,0,1.346,1.548,1.486,3.343,1.625,2.12.186,4.395.294,4.395,2.615,0,2.368-2.646,3.018-4.55,3.018-1.578,0-3.992-.464-4.5-2.321C429.15,323.026,430.357,322.794,430.48,323.428Z" transform="translate(-371.408 -315.876)" fill="#4d25b9"/>
    </g>
    <rect id="Rectangle_1" data-name="Rectangle 1" width="33.548" height="9.469" rx="4.735" transform="translate(235.475 270.343)" fill="#31e8a2"/>
    <g id="Group_2" data-name="Group 2" transform="translate(239.217 271.468)">
      <path id="Path_8" data-name="Path 8" d="M383.2,354.857a.388.388,0,0,1-.773.011v-6.1a.378.378,0,0,1,.4-.376h2.33a2.475,2.475,0,0,1,2.728,2.469c0,1.288-.88,2.352-2.759,2.352H383.2Zm1.922-2.341c1.428,0,2-.837,2-1.654a1.828,1.828,0,0,0-1.954-1.772H383.2v3.425Z" transform="translate(-382.426 -348.285)" fill="#fff"/>
      <path id="Path_9" data-name="Path 9" d="M397.382,354.825v-6.056a.371.371,0,0,1,.4-.376.366.366,0,0,1,.4.376v5.744h4.015a.358.358,0,1,1,0,.709h-4.4C397.5,355.222,397.382,355.082,397.382,354.825Z" transform="translate(-390.512 -348.285)" fill="#fff"/>
      <path id="Path_10" data-name="Path 10" d="M415.776,348.158a.381.381,0,0,1,.4.387V352.1a3.168,3.168,0,0,1-6.336,0v-3.586a.367.367,0,0,1,.4-.355.373.373,0,0,1,.408.365V352.1a2.362,2.362,0,0,0,4.724,0v-3.543A.386.386,0,0,1,415.776,348.158Z" transform="translate(-397.247 -348.158)" fill="#fff"/>
      <path id="Path_11" data-name="Path 11" d="M427.139,353.4c.279.891,1.471,1.031,2.33,1.031.913,0,2.33-.226,2.33-1.31,0-.934-1.128-1.009-2.309-1.106-1.482-.118-3.071-.258-3.071-1.858,0-1.418,1.632-2,2.942-2,1.127,0,2.534.215,2.985,1.439.161.429-.57.623-.73.258-.322-.817-1.471-.9-2.244-.9-.719,0-2.115.236-2.115,1.213,0,.934,1.073,1.031,2.319,1.127,1.471.129,3.05.2,3.05,1.815,0,1.643-1.836,2.093-3.157,2.093-1.1,0-2.77-.322-3.124-1.61C426.215,353.119,427.052,352.958,427.139,353.4Z" transform="translate(-406.164 -348.158)" fill="#fff"/>
    </g>
    <g id="Group_9" data-name="Group 9" transform="translate(117.553 206.315)">
      <path id="Union_1" data-name="Union 1" d="M19.087,58.535a15.041,15.041,0,0,1-3.615-4.582,7.074,7.074,0,0,1-.66-1.283,3.848,3.848,0,0,1-.446-.976,11.286,11.286,0,0,1-.754-1.912h0a15.913,15.913,0,0,1-.666-1.864,1.853,1.853,0,0,1-.226-.614h0A.558.558,0,0,1,12.6,47l-.017-.071a3.372,3.372,0,0,1-.3-.812,15.53,15.53,0,0,1-.674-1.794h0a1.384,1.384,0,0,1-.208-.528,1.723,1.723,0,0,1-.239-.652h0A1.051,1.051,0,0,1,11,42.757c-.083-.052-.057-.136-.062-.211h0a1.554,1.554,0,0,1-.228-.591q-.465-1.152-.926-2.3c-.01-.024.024-.064.037-.1-.129-.051-.136-.17-.155-.282a11.978,11.978,0,0,1-.591-1.509A7.831,7.831,0,0,1,8.622,36.6,18.208,18.208,0,0,1,7.9,34.779,7.283,7.283,0,0,1,7.433,33.6a.149.149,0,0,1-.062-.154.268.268,0,0,1-.081-.215,1.661,1.661,0,0,1-.217-.535A20.279,20.279,0,0,1,6.3,30.765,8.52,8.52,0,0,1,5.8,29.5a4.713,4.713,0,0,1-.446-1.117,5.494,5.494,0,0,1-.448-1.113,14.27,14.27,0,0,1-.662-1.646.653.653,0,0,1-.153-.375.147.147,0,0,1-.063-.15.257.257,0,0,1-.086-.221,7.566,7.566,0,0,1-.462-1.164h0a3.954,3.954,0,0,1-.364-.907,10.252,10.252,0,0,1-.6-1.487L2.3,20.783l-.163-.372c-.075-.056-.059-.144-.075-.22a3.737,3.737,0,0,1-.358-.9,19.913,19.913,0,0,1-.831-2.08l-.043-.086a.875.875,0,0,1-.167-.441,4.368,4.368,0,0,1-.58-2.154l-.024-.675c0-.068,0-.136,0-.2a4.857,4.857,0,0,1,0-1.536l.014-.57.005-.3a.778.778,0,0,1,.053-.464A11.448,11.448,0,0,1,.608,8.05a7.467,7.467,0,0,1,.877-2.166,5.959,5.959,0,0,1,2.831-2.74,9.381,9.381,0,0,1,8.987.085A9.009,9.009,0,0,1,16.4,5.95a1.523,1.523,0,0,1,.423.6l.148.228a4.081,4.081,0,0,1,.748,1.335l.09.142.043.087h0a23.8,23.8,0,0,1,1.137,2.6,12.3,12.3,0,0,1,.67,1.633,7.024,7.024,0,0,1,.43,1.048l.029.212a1.859,1.859,0,0,1,.282.624,22.535,22.535,0,0,1,.957,2.373,17.4,17.4,0,0,1,.663,1.715,3.791,3.791,0,0,1,.326.863.708.708,0,0,1,.155.385,16.274,16.274,0,0,1,.661,1.713.183.183,0,0,1,.017.038,11.1,11.1,0,0,1,.555,1.465,1.053,1.053,0,0,1,.167.446.147.147,0,0,1,.062.152,7.665,7.665,0,0,1,.447,1.192,1.791,1.791,0,0,1,.208.527l.532,1.41a7.281,7.281,0,0,1,.383,1.041,3.22,3.22,0,0,1,.287.749,15.229,15.229,0,0,1,.606,1.635l.852,2.209a.447.447,0,0,1,.047.322c.061.155.227.259.215.449a11.861,11.861,0,0,1,.528,1.414,8.922,8.922,0,0,1,.44,1.188,12.664,12.664,0,0,1,.523,1.418l.444,1.2c.273.687.545,1.374.761,2.081a18.129,18.129,0,0,1,.659,1.79l.1.29a.571.571,0,0,1,.117.307l.518,1.415c.11.286.211.576.334.857.042.1.008.272.2.256a2.242,2.242,0,0,1,.232-.594q.45-1.264.9-2.529a3.983,3.983,0,0,1,.275-.841.047.047,0,0,1,.013-.056,13.036,13.036,0,0,1,.523-1.714,1.328,1.328,0,0,1,.155-.668l.371-1.492.227-1.037.372-1.943L35.466,33l.144-1.12.082-.89c.048-.523.026-1.051.123-1.571l.019-1.191-.086-2.681a8.253,8.253,0,0,1-.158-1.321v0a.86.86,0,0,1-.078-.446.187.187,0,0,1-.046-.174,1.253,1.253,0,0,1-.092-.516l-.211-.823-.018-.127a1,1,0,0,1-.136-.464L34.4,19.886a9.734,9.734,0,0,1-.506-1.193,6.673,6.673,0,0,1-.461-1.024.373.373,0,0,1-.114-.248.077.077,0,0,1-.027-.067,15.239,15.239,0,0,1-.986-2.231,6.17,6.17,0,0,1-.505-1.563,8.6,8.6,0,0,1-.339-3.234,1.418,1.418,0,0,1,.038-.363,1.19,1.19,0,0,1,.069-.6A6.34,6.34,0,0,1,32.813,6.32,7.873,7.873,0,0,1,34.775,4.21a10.27,10.27,0,0,1,6.86-2.327,7.623,7.623,0,0,1,6.333,3.535h0a3.416,3.416,0,0,1,.511.765v0a15.971,15.971,0,0,1,1.339,2.382,17.415,17.415,0,0,1,.983,2.051.645.645,0,0,1,.147.328h0a16.347,16.347,0,0,1,.894,2.067h0a1.1,1.1,0,0,1,.2.475,11.065,11.065,0,0,1,.621,1.539,13.778,13.778,0,0,1,.648,1.662h0a1.1,1.1,0,0,1,.165.437.634.634,0,0,1,.126.308,4.063,4.063,0,0,1,.318.89,10.9,10.9,0,0,1,.591,1.566,15.274,15.274,0,0,1,.687,1.906,3.021,3.021,0,0,1,.305.838.349.349,0,0,1,.1.233l.021.078a11.517,11.517,0,0,1,.467,1.315,11.255,11.255,0,0,1,.592,1.643,2.969,2.969,0,0,1,.276.759,9.982,9.982,0,0,1,.547,1.563h0a3.752,3.752,0,0,1,.287.75.24.24,0,0,1,.08.22,2.993,2.993,0,0,1,.282.75c.271.662.535,1.327.747,2.01l.111.289.033.084a3.916,3.916,0,0,1,.31.817l.592,1.491a6.577,6.577,0,0,1,.445,1.117,8.1,8.1,0,0,1,.6,1.415c.258.531.518,1.061.774,1.594.053.109.143.206.128.341l.366.672.078.148a.523.523,0,0,1,.155.3,4.327,4.327,0,0,1,.516.969,7.725,7.725,0,0,1,.673,1.408,1.417,1.417,0,0,1,.226.523h0a2.566,2.566,0,0,1,.384,1.117,2.692,2.692,0,0,1,.449,1.117.275.275,0,0,1,.062.216h0a3.876,3.876,0,0,1,.3,1.038,3.493,3.493,0,0,1,.234.977,14.884,14.884,0,0,1,.368,5.08,1.681,1.681,0,0,1-.084.665,4.485,4.485,0,0,1-.293,1.362c-.1.22-.063.482-.221.681a2.006,2.006,0,0,1-.3.722.174.174,0,0,1-.075.157,3.709,3.709,0,0,1-.562.955.19.19,0,0,1-.047.056,6.77,6.77,0,0,1-3.242,2.505,8.888,8.888,0,0,1-7.184.026,11.97,11.97,0,0,1-4.4-3.644,11.366,11.366,0,0,1-1.124-1.605,18.074,18.074,0,0,1-1.564-2.756,11.836,11.836,0,0,1-.736-1.507.578.578,0,0,1-.146-.306.832.832,0,0,1-.16-.349,5.347,5.347,0,0,1-.444-.977,13.057,13.057,0,0,1-.66-1.5.713.713,0,0,1-.162-.417h0l-.155-.323a.675.675,0,0,1-.135-.372,19.78,19.78,0,0,1-.9-2.292,1.786,1.786,0,0,1-.236-.612,6.81,6.81,0,0,1-.437-1.193,4.847,4.847,0,0,1-.366-1.037,5.277,5.277,0,0,1-.375-1.107.148.148,0,0,1-.021-.056l-.153-.4-.061-.224-.323-.9c-.174.089-.057.289-.171.388a10.5,10.5,0,0,1-.376,1.778,15,15,0,0,1-.528,2.152,10.451,10.451,0,0,1-.442,1.574h0a7.9,7.9,0,0,1-.444,1.423,23.879,23.879,0,0,1-.779,2.284,4.026,4.026,0,0,1-.339.838.3.3,0,0,1-.081.213,9.273,9.273,0,0,1-.586,1.365h0a16.673,16.673,0,0,1-1.2,2.428,13.888,13.888,0,0,1-1.406,2.259,12.691,12.691,0,0,1-4.832,4.409A11.519,11.519,0,0,1,25.21,60.7c-.138.006-.274.009-.409.009A8.693,8.693,0,0,1,19.087,58.535ZM15.9,53.857a.22.22,0,0,0-.058-.012A.429.429,0,0,0,15.9,53.857Zm47.171-.422c-.005-.011-.01-.022-.014-.034A.07.07,0,0,0,63.067,53.435Zm-.436-.86,0,.008v-.01Zm-26.767-.239.021-.024-.018-.006C35.866,52.316,35.865,52.325,35.864,52.336Zm27.659-1.9.005,0v-.016Zm-26.371-.758.01.017.021-.027Zm8.5-.364v0l0,0h0ZM12.874,47.3h0l0,0v0Zm.007-.244v-.006S12.876,47.051,12.88,47.051ZM38.4,46.86a.511.511,0,0,1,.086-.021c0-.03,0-.061,0-.092A.42.42,0,0,0,38.4,46.86Zm23.941-.307v0h0Zm.075-.45v0h0Zm-6.163-.41a.347.347,0,0,0,.277,0Zm-20.325-.173c.11-.012.221-.02.331-.022a.509.509,0,0,0-.154-.024A.314.314,0,0,0,35.923,45.521Zm-13.338-.012a.414.414,0,0,0-.35,0l.163,0Q22.492,45.5,22.585,45.509Zm10.253-1.514.014.018.023-.057C32.861,43.969,32.849,43.982,32.837,43.995Zm10.3-.549,0,0,0,0ZM11.093,42.379h0l.026-.024-.014-.021-.012.045Zm0,0-.024-.034A.091.091,0,0,0,11.093,42.379ZM60.931,37.27a.56.56,0,0,0,.058-.1A.185.185,0,0,0,60.931,37.27ZM26.956,32.694v0a.028.028,0,0,1,0,.021h.006c0-.007,0-.015,0-.022h0v0Zm.019.012a.034.034,0,0,0-.018-.01ZM6.49,30.53l.008,0,0-.01Zm-1.8-4.463h0l.009,0-.01-.013A.072.072,0,0,0,4.688,26.067Zm31.069-2.349,0,0h0Zm19.8-.074.006,0,0-.007ZM22.272,19.731h0a.148.148,0,0,1,.043-.021A.089.089,0,0,0,22.272,19.731ZM32.4,15.122v0h0ZM19.9,13.82l0,0a.2.2,0,0,1,.038-.034A.056.056,0,0,0,19.9,13.82Zm31.626-.491.01,0v-.009Zm.066-.446.005-.011C51.585,12.877,51.578,12.885,51.592,12.883Zm-32.553-.138a.177.177,0,0,0,.176-.1ZM66.824,56.338c.24-.288.486-.608.774-1.007A21.713,21.713,0,0,0,69,53.1c.154-.28.3-.564.445-.848.182-.364.362-.752.566-1.22s.385-.909.536-1.312a23.2,23.2,0,0,0,.747-2.356,24.6,24.6,0,0,0,.533-2.673,20.171,20.171,0,0,0,.193-2.438A18.126,18.126,0,0,0,70.39,34.5c-.443-1.013-.926-1.945-1.394-2.846l-.051-.1a8.455,8.455,0,0,1-.517-1.22c-.071-.211-.135-.43-.19-.652s-.1-.448-.14-.676a8.426,8.426,0,0,1,.067-3.112c.021-.1.046-.205.071-.307a8.641,8.641,0,0,1,3.427-5.026,8.41,8.41,0,0,1,2.972-1.323c.281-.064.573-.116.866-.153h.01A8.567,8.567,0,0,1,84.994,26c.428,2.263-.644,7.8-1.6,10.771-1.379,4.278-5.4,12.511-16.911,19.963C66.6,56.606,66.712,56.473,66.824,56.338ZM60.6,8.036a8.036,8.036,0,1,1,8.036,8.036A8.036,8.036,0,0,1,60.6,8.036Z" transform="translate(0)" stroke="rgba(0,0,0,0)" stroke-miterlimit="10" stroke-width="1" fill="url(#linear-gradient)"/>
    </g>
  </g>
</svg>
