<svg xmlns="http://www.w3.org/2000/svg" xmlns:xlink="http://www.w3.org/1999/xlink" width="206.982" height="100.161" viewBox="0 0 206.982 100.161">
  <defs>
    <linearGradient id="linear-gradient" x1="-0.044" y1="0.5" x2="1.19" y2="0.5" gradientUnits="objectBoundingBox">
      <stop offset="0" stop-color="#5f00ab"/>
      <stop offset="0.027" stop-color="#5f00ab"/>
      <stop offset="0.44" stop-color="#0df"/>
      <stop offset="1" stop-color="#f8cd1a"/>
    </linearGradient>
  </defs>
  <g id="logo" transform="translate(-117.053 -205.815)">
    <g id="Group_1" data-name="Group 1" transform="translate(233.21 274.555)">
      <path id="Path_1" data-name="Path 1" d="M313.044,328.174a.693.693,0,1,1,0,1.385H304.21a.916.916,0,0,1-.965-.924V317.115a.912.912,0,0,1,.965-.9h8.856a.672.672,0,0,1-.022,1.343h-8.288v4.722h7.89a.672.672,0,0,1,0,1.343h-7.89v4.553Z" transform="translate(-303.245 -316.003)" fill="#4d25b9"/>
      <path id="Path_2" data-name="Path 2" d="M324.769,328.783V316.947a.725.725,0,0,1,.777-.734.714.714,0,0,1,.777.734v11.227h7.848a.7.7,0,1,1,0,1.385h-8.6C325,329.559,324.769,329.286,324.769,328.783Z" transform="translate(-311.363 -316.003)" fill="#4d25b9"/>
      <path id="Path_3" data-name="Path 3" d="M344.172,328.783V316.947a.725.725,0,0,1,.776-.734.714.714,0,0,1,.777.734v11.227h7.848a.7.7,0,1,1,0,1.385h-8.6C344.4,329.559,344.172,329.286,344.172,328.783Z" transform="translate(-318.681 -316.003)" fill="#4d25b9"/>
      <path id="Path_4" data-name="Path 4" d="M373.792,316.213a.7.7,0,0,1,.776.671v11.772a.9.9,0,0,1-.965.9,1.081,1.081,0,0,1-.923-.483l-7.849-10.408.168,2.9v7.219a.8.8,0,0,1-1.6,0V317.136a.84.84,0,0,1,.84-.923,1.056,1.056,0,0,1,.861.482l8.079,10.619-.211-3.169v-7.261A.729.729,0,0,1,373.792,316.213Z" transform="translate(-325.934 -316.003)" fill="#4d25b9"/>
      <path id="Path_5" data-name="Path 5" d="M396.65,328.174a.693.693,0,1,1,0,1.385h-8.835a.916.916,0,0,1-.965-.924V317.115a.911.911,0,0,1,.965-.9h8.856a.672.672,0,0,1-.021,1.343H388.36v4.722h7.89a.672.672,0,0,1,0,1.343h-7.89v4.553Z" transform="translate(-334.777 -316.003)" fill="#4d25b9"/>
      <path id="Path_6" data-name="Path 6" d="M408.092,326.116c.546,1.742,2.875,2.015,4.554,2.015,1.784,0,4.554-.44,4.554-2.56,0-1.826-2.2-1.973-4.512-2.161-2.9-.231-6-.5-6-3.631,0-2.77,3.19-3.9,5.749-3.9,2.2,0,4.953.42,5.835,2.812.314.839-1.113,1.217-1.427.5-.63-1.594-2.876-1.763-4.386-1.763-1.406,0-4.134.462-4.134,2.372,0,1.826,2.1,2.014,4.532,2.2,2.875.252,5.96.4,5.96,3.546,0,3.211-3.588,4.093-6.169,4.093-2.141,0-5.414-.63-6.106-3.148C406.287,325.571,407.924,325.257,408.092,326.116Z" transform="translate(-342.193 -315.876)" fill="#4d25b9"/>
      <path id="Path_7" data-name="Path 7" d="M430.895,326.116c.546,1.742,2.875,2.015,4.554,2.015,1.784,0,4.554-.44,4.554-2.56,0-1.826-2.2-1.973-4.512-2.161-2.9-.231-6-.5-6-3.631,0-2.77,3.19-3.9,5.75-3.9,2.2,0,4.952.42,5.833,2.812.315.839-1.112,1.217-1.427.5-.628-1.594-2.874-1.763-4.385-1.763-1.406,0-4.133.462-4.133,2.372,0,1.826,2.1,2.014,4.532,2.2,2.874.252,5.959.4,5.959,3.546,0,3.211-3.588,4.093-6.17,4.093-2.14,0-5.413-.63-6.106-3.148C429.09,325.571,430.727,325.257,430.895,326.116Z" transform="translate(-350.793 -315.876)" fill="#4d25b9"/>
    </g>
    <rect id="Rectangle_1" data-name="Rectangle 1" width="45.49" height="12.84" rx="6.42" transform="translate(277.453 293.136)" fill="#31e8a2"/>
    <g id="Group_2" data-name="Group 2" transform="translate(282.528 294.661)">
      <path id="Path_8" data-name="Path 8" d="M383.474,357.158a.526.526,0,0,1-1.048.014V348.9a.513.513,0,0,1,.539-.509h3.159a3.356,3.356,0,0,1,3.7,3.348c0,1.747-1.193,3.189-3.741,3.189h-2.607Zm2.607-3.174c1.936,0,2.708-1.135,2.708-2.242a2.478,2.478,0,0,0-2.65-2.4h-2.665v4.645Z" transform="translate(-382.426 -348.247)" fill="#fff"/>
      <path id="Path_9" data-name="Path 9" d="M397.382,357.114V348.9a.5.5,0,0,1,.539-.509.5.5,0,0,1,.539.509v7.789H403.9a.486.486,0,1,1,0,.961h-5.969C397.543,357.653,397.382,357.463,397.382,357.114Z" transform="translate(-388.067 -348.247)" fill="#fff"/>
      <path id="Path_10" data-name="Path 10" d="M417.89,348.158a.516.516,0,0,1,.539.524V353.5a4.3,4.3,0,0,1-8.591,0v-4.863a.5.5,0,0,1,.539-.481.505.505,0,0,1,.554.5V353.5a3.2,3.2,0,0,0,6.406,0v-4.8A.523.523,0,0,1,417.89,348.158Z" transform="translate(-392.765 -348.158)" fill="#fff"/>
      <path id="Path_11" data-name="Path 11" d="M427.426,355.264c.378,1.208,1.994,1.4,3.159,1.4,1.238,0,3.16-.306,3.16-1.777,0-1.266-1.529-1.368-3.13-1.5-2.009-.16-4.164-.35-4.164-2.519,0-1.922,2.214-2.709,3.99-2.709,1.528,0,3.436.292,4.048,1.951.218.582-.772.845-.99.35-.437-1.107-1.995-1.223-3.043-1.223-.975,0-2.868.319-2.868,1.645,0,1.267,1.456,1.4,3.145,1.528,1.995.175,4.135.277,4.135,2.461,0,2.227-2.49,2.838-4.281,2.838-1.485,0-3.756-.437-4.237-2.184C426.174,354.885,427.309,354.667,427.426,355.264Z" transform="translate(-398.985 -348.158)" fill="#fff"/>
    </g>
    <g id="Group_9" data-name="Group 9" transform="translate(117.553 206.315)">
      <path id="Union_1" data-name="Union 1" d="M25.882,79.372a20.4,20.4,0,0,1-4.9-6.213,9.593,9.593,0,0,1-.9-1.74,5.218,5.218,0,0,1-.6-1.324A15.3,15.3,0,0,1,18.458,67.5h0a21.578,21.578,0,0,1-.9-2.527,2.513,2.513,0,0,1-.306-.832h0a.756.756,0,0,1-.169-.415l-.024-.1a4.573,4.573,0,0,1-.408-1.1,21.059,21.059,0,0,1-.914-2.432h0a1.877,1.877,0,0,1-.281-.716,2.336,2.336,0,0,1-.323-.885h0a1.425,1.425,0,0,1-.22-.519c-.113-.071-.077-.184-.084-.286h0a2.107,2.107,0,0,1-.309-.8q-.631-1.561-1.256-3.125c-.013-.032.033-.087.05-.131-.175-.069-.184-.23-.21-.382a16.242,16.242,0,0,1-.8-2.046,10.619,10.619,0,0,1-.614-1.582,24.689,24.689,0,0,1-.98-2.464,9.876,9.876,0,0,1-.632-1.605.2.2,0,0,1-.084-.209.363.363,0,0,1-.109-.291,2.252,2.252,0,0,1-.294-.726,27.5,27.5,0,0,1-1.042-2.611A11.553,11.553,0,0,1,7.868,40a6.391,6.391,0,0,1-.6-1.515,7.45,7.45,0,0,1-.608-1.509,19.35,19.35,0,0,1-.9-2.232.885.885,0,0,1-.207-.509.2.2,0,0,1-.085-.2.349.349,0,0,1-.116-.3,10.259,10.259,0,0,1-.627-1.579h0a5.362,5.362,0,0,1-.494-1.23,13.9,13.9,0,0,1-.813-2.016l-.293-.724-.221-.5c-.1-.076-.08-.2-.1-.3a5.068,5.068,0,0,1-.485-1.221,27,27,0,0,1-1.126-2.821l-.058-.117a1.187,1.187,0,0,1-.226-.6A5.923,5.923,0,0,1,.119,19.7l-.033-.916c0-.092,0-.184-.005-.275a6.586,6.586,0,0,1,0-2.082L.1,15.653l.007-.405a1.055,1.055,0,0,1,.072-.63,15.524,15.524,0,0,1,.642-3.7A10.126,10.126,0,0,1,2.014,7.978,8.08,8.08,0,0,1,5.852,4.264a12.72,12.72,0,0,1,12.187.115,12.217,12.217,0,0,1,4.2,3.69,2.065,2.065,0,0,1,.574.818l.2.309a5.534,5.534,0,0,1,1.014,1.811l.122.192.058.118h0a32.273,32.273,0,0,1,1.542,3.526,16.681,16.681,0,0,1,.908,2.214,9.525,9.525,0,0,1,.584,1.421l.039.287a2.52,2.52,0,0,1,.382.846,30.557,30.557,0,0,1,1.3,3.218,23.592,23.592,0,0,1,.9,2.325,5.141,5.141,0,0,1,.442,1.17.96.96,0,0,1,.21.522,22.067,22.067,0,0,1,.9,2.323.248.248,0,0,1,.022.052,15.047,15.047,0,0,1,.753,1.986,1.428,1.428,0,0,1,.226.605.2.2,0,0,1,.085.206,10.394,10.394,0,0,1,.606,1.617,2.429,2.429,0,0,1,.283.714q.361.955.721,1.912a9.873,9.873,0,0,1,.52,1.411,4.366,4.366,0,0,1,.389,1.016,20.65,20.65,0,0,1,.822,2.216l1.156,3a.607.607,0,0,1,.063.436c.082.21.308.351.291.608a16.084,16.084,0,0,1,.716,1.918,12.1,12.1,0,0,1,.6,1.611,17.172,17.172,0,0,1,.709,1.922l.6,1.621c.371.931.739,1.863,1.033,2.822a24.583,24.583,0,0,1,.893,2.428l.142.393a.774.774,0,0,1,.158.416l.7,1.919c.149.388.286.781.452,1.161.057.13.011.369.273.347a3.04,3.04,0,0,1,.314-.806q.61-1.714,1.221-3.429a5.4,5.4,0,0,1,.373-1.141.064.064,0,0,1,.018-.076,17.677,17.677,0,0,1,.71-2.325,1.8,1.8,0,0,1,.21-.906l.5-2.024.308-1.406.5-2.634.308-2.009.2-1.519.111-1.207c.065-.709.036-1.425.167-2.13l.025-1.615-.116-3.635a11.19,11.19,0,0,1-.214-1.791v0a1.167,1.167,0,0,1-.106-.6.253.253,0,0,1-.062-.236,1.7,1.7,0,0,1-.124-.7l-.286-1.116-.025-.172a1.358,1.358,0,0,1-.184-.629l-.831-2.425a13.2,13.2,0,0,1-.687-1.618,9.048,9.048,0,0,1-.624-1.389.506.506,0,0,1-.154-.336.1.1,0,0,1-.037-.09A20.664,20.664,0,0,1,43.8,20.508a8.366,8.366,0,0,1-.685-2.119A11.66,11.66,0,0,1,42.655,14a1.923,1.923,0,0,1,.052-.492A1.614,1.614,0,0,1,42.8,12.7,8.6,8.6,0,0,1,44.493,8.57a10.675,10.675,0,0,1,2.661-2.862,13.926,13.926,0,0,1,9.3-3.156,10.337,10.337,0,0,1,8.587,4.793h0a4.632,4.632,0,0,1,.693,1.038v0a21.657,21.657,0,0,1,1.816,3.229A23.615,23.615,0,0,1,68.887,14.4a.875.875,0,0,1,.2.444h0a22.166,22.166,0,0,1,1.212,2.8h0a1.49,1.49,0,0,1,.27.644,15,15,0,0,1,.843,2.086,18.684,18.684,0,0,1,.879,2.254h0a1.492,1.492,0,0,1,.224.593.86.86,0,0,1,.17.418,5.509,5.509,0,0,1,.432,1.206,14.782,14.782,0,0,1,.8,2.124,20.711,20.711,0,0,1,.932,2.585,4.1,4.1,0,0,1,.414,1.136.473.473,0,0,1,.133.316l.028.105a15.617,15.617,0,0,1,.633,1.783,15.262,15.262,0,0,1,.8,2.228,4.027,4.027,0,0,1,.374,1.03,13.536,13.536,0,0,1,.742,2.12h0a5.088,5.088,0,0,1,.389,1.017.326.326,0,0,1,.109.3,4.059,4.059,0,0,1,.382,1.017c.368.9.725,1.8,1.014,2.726l.15.391.045.114a5.31,5.31,0,0,1,.42,1.108q.4,1.011.8,2.022a8.918,8.918,0,0,1,.6,1.515A10.981,10.981,0,0,1,82.7,50.4c.35.72.7,1.439,1.049,2.161.071.148.195.279.174.462q.249.455.5.911l.106.2a.71.71,0,0,1,.21.4,5.867,5.867,0,0,1,.7,1.313,10.475,10.475,0,0,1,.912,1.91,1.922,1.922,0,0,1,.307.709h0a3.48,3.48,0,0,1,.52,1.514,3.65,3.65,0,0,1,.609,1.515.374.374,0,0,1,.084.293h0a5.256,5.256,0,0,1,.4,1.408,4.736,4.736,0,0,1,.317,1.325,20.183,20.183,0,0,1,.5,6.888,2.28,2.28,0,0,1-.113.9,6.082,6.082,0,0,1-.4,1.847c-.133.3-.086.654-.3.924a2.72,2.72,0,0,1-.406.979.236.236,0,0,1-.1.212,5.029,5.029,0,0,1-.762,1.3.257.257,0,0,1-.063.076,9.18,9.18,0,0,1-4.4,3.4,12.052,12.052,0,0,1-9.741.036,16.232,16.232,0,0,1-5.96-4.942,15.412,15.412,0,0,1-1.525-2.177A24.507,24.507,0,0,1,63.2,70.225a16.049,16.049,0,0,1-1-2.043.784.784,0,0,1-.2-.415,1.129,1.129,0,0,1-.217-.474,7.25,7.25,0,0,1-.6-1.325,17.7,17.7,0,0,1-.895-2.039.967.967,0,0,1-.22-.565h0l-.21-.438a.916.916,0,0,1-.183-.505,26.821,26.821,0,0,1-1.22-3.108,2.422,2.422,0,0,1-.321-.83,9.234,9.234,0,0,1-.593-1.618,6.572,6.572,0,0,1-.5-1.406,7.155,7.155,0,0,1-.508-1.5.2.2,0,0,1-.029-.076l-.207-.547-.083-.3-.438-1.219c-.236.121-.078.392-.232.526a14.236,14.236,0,0,1-.51,2.41,20.336,20.336,0,0,1-.716,2.918,14.171,14.171,0,0,1-.6,2.134h0a10.706,10.706,0,0,1-.6,1.929,32.38,32.38,0,0,1-1.057,3.1,5.459,5.459,0,0,1-.46,1.136.4.4,0,0,1-.109.289,12.574,12.574,0,0,1-.795,1.851h0a22.609,22.609,0,0,1-1.63,3.292,18.832,18.832,0,0,1-1.907,3.063,17.209,17.209,0,0,1-6.552,5.978,15.62,15.62,0,0,1-6.431,1.868c-.187.008-.371.012-.555.012A11.788,11.788,0,0,1,25.882,79.372Zm-4.328-6.343a.3.3,0,0,0-.078-.017A.582.582,0,0,0,21.554,73.029Zm63.963-.572c-.007-.015-.013-.03-.02-.046A.094.094,0,0,0,85.517,72.457Zm-.591-1.166,0,.011,0-.013Zm-36.3-.325.029-.033-.025-.008C48.634,70.94,48.633,70.952,48.631,70.967Zm37.5-2.579.007.006v-.021ZM50.378,67.36a.183.183,0,0,1,.013.022l.029-.036ZM61.9,66.867v0s0,0-.007,0h0ZM17.457,64.131h0l.007-.007v0Zm.009-.331v-.008S17.46,63.8,17.466,63.8Zm34.6-.26a.693.693,0,0,1,.117-.029c0-.041.006-.082.006-.124A.569.569,0,0,0,52.063,63.541Zm32.463-.416v0h0Zm.1-.61,0,0h0Zm-8.357-.556a.471.471,0,0,0,.376-.006C76.522,61.955,76.4,61.958,76.271,61.96Zm-27.56-.234c.15-.016.3-.027.448-.03a.691.691,0,0,0-.208-.033A.426.426,0,0,0,48.711,61.725Zm-18.086-.016a.562.562,0,0,0-.474,0q.11,0,.221,0Q30.5,61.7,30.625,61.709Zm13.9-2.053.018.024c.01-.025.019-.049.031-.077C44.558,59.621,44.543,59.639,44.527,59.656Zm13.964-.744,0,0,0-.007ZM15.042,57.465h0l.035-.033-.019-.029-.017.062Zm0,0-.032-.047A.123.123,0,0,0,15.042,57.465Zm67.58-6.928a.76.76,0,0,0,.079-.14A.251.251,0,0,0,82.622,50.537Zm-46.069-6.2,0,0a.039.039,0,0,1,0,.029h.008c0-.01,0-.02,0-.03h0v0Zm.026.016a.046.046,0,0,0-.025-.013ZM8.8,41.4l.011,0-.005-.013ZM6.357,35.346h0l.012,0-.014-.018A.1.1,0,0,0,6.357,35.346ZM48.486,32.16l0-.007h0Zm26.848-.1.008.005,0-.01ZM30.2,26.756h0a.2.2,0,0,1,.058-.029A.121.121,0,0,0,30.2,26.756ZM43.928,20.5l0-.005v0h0ZM26.986,18.74l.006.007a.269.269,0,0,1,.052-.045A.076.076,0,0,0,26.986,18.74Zm42.884-.666.013,0v-.012Zm.089-.6.007-.015C69.948,17.461,69.938,17.472,69.959,17.469Zm-44.142-.187a.241.241,0,0,0,.238-.132C25.959,17.2,25.882,17.248,25.817,17.283Zm64.8,59.11c.325-.391.659-.824,1.049-1.366A29.443,29.443,0,0,0,93.569,72c.209-.38.41-.765.6-1.15.247-.494.491-1.019.767-1.654.285-.651.522-1.233.727-1.779a31.454,31.454,0,0,0,1.013-3.2A33.359,33.359,0,0,0,97.4,60.6a27.35,27.35,0,0,0,.262-3.306,24.578,24.578,0,0,0-2.216-10.513c-.6-1.374-1.256-2.637-1.89-3.859l-.069-.133a11.465,11.465,0,0,1-.7-1.654c-.1-.286-.183-.582-.258-.884s-.138-.608-.19-.917a11.425,11.425,0,0,1,.091-4.219c.029-.14.062-.279.1-.417a11.717,11.717,0,0,1,4.648-6.815,11.4,11.4,0,0,1,4.03-1.794c.381-.087.777-.157,1.174-.207h.014a11.616,11.616,0,0,1,12.856,9.378c.581,3.069-.873,10.574-2.172,14.6-1.869,5.8-7.329,16.965-22.931,27.07C90.3,76.757,90.46,76.576,90.613,76.393Zm-8.44-65.5a10.9,10.9,0,1,1,10.9,10.9A10.9,10.9,0,0,1,82.173,10.9Z" transform="translate(0)" stroke="rgba(0,0,0,0)" stroke-miterlimit="10" stroke-width="1" fill="url(#linear-gradient)"/>
    </g>
  </g>
</svg>
