<svg xmlns="http://www.w3.org/2000/svg" xmlns:xlink="http://www.w3.org/1999/xlink" width="191.271" height="92.578" viewBox="0 0 191.271 92.578">
  <defs>
    <linearGradient id="linear-gradient" x1="-0.044" y1="0.5" x2="1.19" y2="0.5" gradientUnits="objectBoundingBox">
      <stop offset="0" stop-color="#5f00ab"/>
      <stop offset="0.027" stop-color="#5f00ab"/>
      <stop offset="0.44" stop-color="#0df"/>
      <stop offset="1" stop-color="#f8cd1a"/>
    </linearGradient>
  </defs>
  <g id="logo-footer" transform="translate(-117.053 -205.815)">
    <g id="Group_1" data-name="Group 1" transform="translate(224.41 269.362)">
      <path id="Path_1" data-name="Path 1" d="M312.3,327.264a.64.64,0,1,1,0,1.28h-8.162a.846.846,0,0,1-.892-.853V317.046a.842.842,0,0,1,.892-.833h8.182a.62.62,0,0,1-.02,1.241h-7.658v4.363h7.29a.621.621,0,0,1,0,1.241h-7.29v4.207Z" transform="translate(-303.245 -316.019)" fill="#4d25b9"/>
      <path id="Path_2" data-name="Path 2" d="M324.769,327.826V316.891a.67.67,0,0,1,.718-.678.66.66,0,0,1,.718.678v10.372h7.251a.647.647,0,1,1,0,1.28h-7.949C324.983,328.544,324.769,328.291,324.769,327.826Z" transform="translate(-312.383 -316.019)" fill="#4d25b9"/>
      <path id="Path_3" data-name="Path 3" d="M344.172,327.826V316.891a.669.669,0,0,1,.717-.678.66.66,0,0,1,.718.678v10.372h7.251a.647.647,0,1,1,0,1.28h-7.949C344.385,328.544,344.172,328.291,344.172,327.826Z" transform="translate(-320.62 -316.019)" fill="#4d25b9"/>
      <path id="Path_4" data-name="Path 4" d="M373,316.213a.647.647,0,0,1,.717.62V327.71a.828.828,0,0,1-.891.834,1,1,0,0,1-.853-.446l-7.252-9.616.155,2.675v6.669a.737.737,0,0,1-1.474,0v-10.76a.776.776,0,0,1,.776-.853.976.976,0,0,1,.8.445l7.464,9.811-.194-2.928v-6.708A.674.674,0,0,1,373,316.213Z" transform="translate(-328.785 -316.019)" fill="#4d25b9"/>
      <path id="Path_5" data-name="Path 5" d="M395.9,327.264a.64.64,0,1,1,0,1.28h-8.163a.846.846,0,0,1-.891-.853V317.046a.842.842,0,0,1,.891-.833h8.182a.62.62,0,0,1-.019,1.241h-7.659v4.363h7.29a.621.621,0,0,1,0,1.241h-7.29v4.207Z" transform="translate(-338.739 -316.019)" fill="#4d25b9"/>
      <path id="Path_6" data-name="Path 6" d="M407.972,325.337c.5,1.61,2.656,1.862,4.207,1.862,1.648,0,4.207-.407,4.207-2.365,0-1.687-2.035-1.823-4.169-2-2.675-.214-5.544-.466-5.544-3.354,0-2.56,2.947-3.606,5.311-3.606,2.036,0,4.576.388,5.391,2.6.29.775-1.028,1.124-1.318.465-.582-1.473-2.657-1.629-4.052-1.629-1.3,0-3.82.426-3.82,2.191,0,1.687,1.939,1.861,4.188,2.035,2.656.233,5.506.369,5.506,3.276,0,2.967-3.315,3.781-5.7,3.781-1.978,0-5-.582-5.642-2.908C406.3,324.834,407.816,324.543,407.972,325.337Z" transform="translate(-347.087 -315.876)" fill="#4d25b9"/>
      <path id="Path_7" data-name="Path 7" d="M430.775,325.337c.5,1.61,2.656,1.862,4.207,1.862,1.648,0,4.208-.407,4.208-2.365,0-1.687-2.036-1.823-4.169-2-2.676-.214-5.545-.466-5.545-3.354,0-2.56,2.947-3.606,5.313-3.606,2.035,0,4.575.388,5.389,2.6.291.775-1.027,1.124-1.318.465-.581-1.473-2.656-1.629-4.052-1.629-1.3,0-3.819.426-3.819,2.191,0,1.687,1.939,1.861,4.188,2.035,2.656.233,5.506.369,5.506,3.276,0,2.967-3.315,3.781-5.7,3.781-1.977,0-5-.582-5.642-2.908C429.108,324.834,430.62,324.543,430.775,325.337Z" transform="translate(-356.768 -315.876)" fill="#4d25b9"/>
    </g>
    <rect id="Rectangle_1" data-name="Rectangle 1" width="42.029" height="11.863" rx="5.932" transform="translate(265.287 286.53)" fill="#31e8a2"/>
    <g id="Group_2" data-name="Group 2" transform="translate(269.975 287.939)">
      <path id="Path_8" data-name="Path 8" d="M383.395,356.491a.486.486,0,0,1-.969.013v-7.64a.474.474,0,0,1,.5-.471h2.919a3.1,3.1,0,0,1,3.417,3.094c0,1.614-1.1,2.946-3.457,2.946h-2.408Zm2.408-2.933c1.789,0,2.5-1.049,2.5-2.072a2.29,2.29,0,0,0-2.449-2.22h-2.462v4.291Z" transform="translate(-382.426 -348.258)" fill="#fff"/>
      <path id="Path_9" data-name="Path 9" d="M397.382,356.451v-7.587a.465.465,0,0,1,.5-.471.458.458,0,0,1,.5.471v7.2h5.031a.449.449,0,1,1,0,.888h-5.515C397.53,356.948,397.382,356.773,397.382,356.451Z" transform="translate(-388.776 -348.258)" fill="#fff"/>
      <path id="Path_10" data-name="Path 10" d="M417.277,348.158a.477.477,0,0,1,.5.485v4.452a3.969,3.969,0,0,1-7.937,0V348.6a.46.46,0,0,1,.5-.444.467.467,0,0,1,.512.457v4.479a2.96,2.96,0,0,0,5.919,0v-4.439A.483.483,0,0,1,417.277,348.158Z" transform="translate(-394.064 -348.158)" fill="#fff"/>
      <path id="Path_11" data-name="Path 11" d="M427.343,354.723c.349,1.116,1.842,1.291,2.919,1.291,1.143,0,2.919-.283,2.919-1.642,0-1.17-1.413-1.264-2.892-1.385-1.857-.148-3.848-.323-3.848-2.327,0-1.776,2.045-2.5,3.686-2.5,1.412,0,3.174.269,3.74,1.8.2.538-.714.78-.915.323-.4-1.023-1.843-1.13-2.812-1.13-.9,0-2.65.3-2.65,1.52,0,1.17,1.345,1.292,2.906,1.412,1.843.162,3.82.256,3.82,2.274,0,2.058-2.3,2.622-3.955,2.622-1.372,0-3.47-.4-3.914-2.018C426.186,354.373,427.235,354.172,427.343,354.723Z" transform="translate(-401.066 -348.158)" fill="#fff"/>
    </g>
    <g id="Group_9" data-name="Group 9" transform="translate(117.553 206.315)">
      <path id="Union_1" data-name="Union 1" d="M23.913,73.333a18.844,18.844,0,0,1-4.529-5.741,8.863,8.863,0,0,1-.827-1.608A4.821,4.821,0,0,1,18,64.762a14.139,14.139,0,0,1-.945-2.4h0a19.937,19.937,0,0,1-.834-2.335,2.322,2.322,0,0,1-.283-.769h0a.7.7,0,0,1-.156-.383l-.022-.089a4.225,4.225,0,0,1-.377-1.017,19.457,19.457,0,0,1-.844-2.247h0a1.734,1.734,0,0,1-.26-.661,2.158,2.158,0,0,1-.3-.817h0a1.316,1.316,0,0,1-.2-.48c-.1-.065-.071-.17-.078-.264h0a1.946,1.946,0,0,1-.285-.74q-.583-1.443-1.161-2.887c-.012-.03.03-.08.047-.121-.162-.064-.17-.213-.194-.353a15.007,15.007,0,0,1-.741-1.89,9.811,9.811,0,0,1-.567-1.462A22.811,22.811,0,0,1,9.9,43.572a9.124,9.124,0,0,1-.584-1.483.187.187,0,0,1-.078-.193.336.336,0,0,1-.1-.269,2.081,2.081,0,0,1-.272-.671A25.406,25.406,0,0,1,7.9,38.543a10.674,10.674,0,0,1-.629-1.589,5.9,5.9,0,0,1-.559-1.4,6.883,6.883,0,0,1-.561-1.394A17.878,17.878,0,0,1,5.32,32.1a.818.818,0,0,1-.192-.47.184.184,0,0,1-.079-.187.322.322,0,0,1-.107-.277,9.478,9.478,0,0,1-.579-1.458h0a4.954,4.954,0,0,1-.456-1.136,12.843,12.843,0,0,1-.751-1.862l-.271-.669-.2-.466c-.094-.07-.074-.18-.094-.276a4.682,4.682,0,0,1-.448-1.128A24.947,24.947,0,0,1,1.1,21.562l-.053-.108A1.1,1.1,0,0,1,.836,20.9,5.472,5.472,0,0,1,.11,18.2l-.03-.846c0-.085,0-.17,0-.254a6.085,6.085,0,0,1,0-1.924L.1,14.462.1,14.088a.975.975,0,0,1,.067-.582,14.343,14.343,0,0,1,.593-3.421,9.355,9.355,0,0,1,1.1-2.713A7.465,7.465,0,0,1,5.407,3.939a11.752,11.752,0,0,1,11.259.106,11.287,11.287,0,0,1,3.884,3.409,1.908,1.908,0,0,1,.53.756l.186.285a5.113,5.113,0,0,1,.937,1.673l.112.178.053.109h0a29.817,29.817,0,0,1,1.424,3.258,15.412,15.412,0,0,1,.839,2.046,8.8,8.8,0,0,1,.539,1.312l.036.265a2.328,2.328,0,0,1,.353.782,28.232,28.232,0,0,1,1.2,2.973,21.8,21.8,0,0,1,.831,2.148A4.75,4.75,0,0,1,28,24.322a.887.887,0,0,1,.194.482,20.389,20.389,0,0,1,.828,2.146.229.229,0,0,1,.021.048,13.9,13.9,0,0,1,.7,1.835,1.319,1.319,0,0,1,.209.559.184.184,0,0,1,.078.191,9.6,9.6,0,0,1,.56,1.494,2.244,2.244,0,0,1,.261.66l.666,1.767a9.122,9.122,0,0,1,.48,1.3,4.034,4.034,0,0,1,.359.938,19.079,19.079,0,0,1,.759,2.048l1.068,2.768a.56.56,0,0,1,.059.4c.076.194.285.324.269.562a14.86,14.86,0,0,1,.662,1.772,11.178,11.178,0,0,1,.551,1.488,15.866,15.866,0,0,1,.655,1.776l.556,1.5c.342.86.683,1.722.954,2.607a22.712,22.712,0,0,1,.825,2.243l.131.363a.715.715,0,0,1,.146.384l.649,1.773c.137.359.264.722.418,1.073.052.12.01.341.252.321a2.809,2.809,0,0,1,.29-.744q.563-1.584,1.129-3.168a4.99,4.99,0,0,1,.344-1.054.059.059,0,0,1,.017-.07,16.332,16.332,0,0,1,.656-2.148,1.663,1.663,0,0,1,.194-.837l.465-1.87.284-1.3.466-2.434.284-1.856.18-1.4.1-1.115c.06-.655.033-1.317.154-1.968l.023-1.492-.107-3.359a10.339,10.339,0,0,1-.2-1.655v0a1.078,1.078,0,0,1-.1-.559.234.234,0,0,1-.057-.218,1.57,1.57,0,0,1-.115-.646l-.265-1.031-.023-.159a1.255,1.255,0,0,1-.17-.581l-.768-2.24a12.2,12.2,0,0,1-.634-1.495,8.36,8.36,0,0,1-.577-1.283.468.468,0,0,1-.142-.31.1.1,0,0,1-.034-.083,19.092,19.092,0,0,1-1.235-2.795,7.73,7.73,0,0,1-.633-1.958,10.772,10.772,0,0,1-.425-4.051,1.776,1.776,0,0,1,.048-.454,1.491,1.491,0,0,1,.087-.748,7.943,7.943,0,0,1,1.563-3.818,9.863,9.863,0,0,1,2.459-2.644,12.866,12.866,0,0,1,8.595-2.916A9.551,9.551,0,0,1,60.1,6.786h0a4.279,4.279,0,0,1,.641.959v0a20.009,20.009,0,0,1,1.677,2.984,21.818,21.818,0,0,1,1.231,2.57.808.808,0,0,1,.184.411h0a20.478,20.478,0,0,1,1.12,2.589h0a1.376,1.376,0,0,1,.25.595,13.861,13.861,0,0,1,.778,1.928,17.26,17.26,0,0,1,.812,2.082h0a1.379,1.379,0,0,1,.207.548.794.794,0,0,1,.157.386,5.09,5.09,0,0,1,.4,1.115,13.656,13.656,0,0,1,.741,1.962,19.135,19.135,0,0,1,.861,2.388,3.785,3.785,0,0,1,.383,1.05.437.437,0,0,1,.123.292l.026.1a14.428,14.428,0,0,1,.585,1.647,14.1,14.1,0,0,1,.742,2.059,3.72,3.72,0,0,1,.346.951,12.506,12.506,0,0,1,.685,1.959h0a4.7,4.7,0,0,1,.359.939.3.3,0,0,1,.1.275,3.75,3.75,0,0,1,.353.94c.34.83.67,1.662.936,2.519l.139.361.042.106a4.906,4.906,0,0,1,.388,1.023q.37.934.741,1.868a8.24,8.24,0,0,1,.558,1.4,10.145,10.145,0,0,1,.748,1.772c.324.666.649,1.329.97,2,.066.137.18.258.161.427q.23.42.459.842l.1.186a.656.656,0,0,1,.194.37,5.421,5.421,0,0,1,.647,1.213,9.679,9.679,0,0,1,.843,1.765,1.776,1.776,0,0,1,.283.655h0a3.215,3.215,0,0,1,.481,1.4,3.372,3.372,0,0,1,.562,1.4.345.345,0,0,1,.078.271h0a4.856,4.856,0,0,1,.373,1.3,4.376,4.376,0,0,1,.293,1.224,18.647,18.647,0,0,1,.461,6.364,2.106,2.106,0,0,1-.1.833,5.619,5.619,0,0,1-.367,1.707c-.123.275-.079.6-.277.854a2.513,2.513,0,0,1-.375.9.218.218,0,0,1-.094.2,4.646,4.646,0,0,1-.7,1.2.238.238,0,0,1-.059.07,8.482,8.482,0,0,1-4.061,3.139,11.135,11.135,0,0,1-9,.033,15,15,0,0,1-5.507-4.566,14.239,14.239,0,0,1-1.409-2.011,22.643,22.643,0,0,1-1.96-3.452,14.828,14.828,0,0,1-.922-1.888.724.724,0,0,1-.182-.383,1.043,1.043,0,0,1-.2-.438,6.7,6.7,0,0,1-.556-1.224,16.357,16.357,0,0,1-.827-1.884.893.893,0,0,1-.2-.522h0l-.194-.4a.846.846,0,0,1-.169-.467A24.781,24.781,0,0,1,54.011,54.8a2.237,2.237,0,0,1-.3-.766,8.531,8.531,0,0,1-.548-1.5,6.072,6.072,0,0,1-.459-1.3,6.61,6.61,0,0,1-.469-1.387.185.185,0,0,1-.026-.07l-.192-.505L51.944,49l-.4-1.126c-.218.112-.072.363-.214.486a13.152,13.152,0,0,1-.471,2.227,18.789,18.789,0,0,1-.661,2.7,13.093,13.093,0,0,1-.553,1.972h0a9.891,9.891,0,0,1-.556,1.783,29.916,29.916,0,0,1-.976,2.861,5.043,5.043,0,0,1-.425,1.05.371.371,0,0,1-.1.267,11.616,11.616,0,0,1-.734,1.71h0a20.888,20.888,0,0,1-1.506,3.042,17.4,17.4,0,0,1-1.762,2.83,15.9,15.9,0,0,1-6.054,5.523,14.431,14.431,0,0,1-5.941,1.726c-.172.008-.343.012-.513.012A10.891,10.891,0,0,1,23.913,73.333Zm-4-5.861a.276.276,0,0,0-.073-.016A.538.538,0,0,0,19.914,67.473Zm59.1-.528c-.007-.013-.012-.028-.018-.042A.087.087,0,0,0,79.011,66.944Zm-.546-1.077,0,.01,0-.012Zm-33.534-.3.026-.03-.023-.008C44.933,65.542,44.932,65.554,44.931,65.567Zm34.651-2.383.007.006v-.02Zm-33.037-.949a.169.169,0,0,1,.012.021l.027-.034Zm10.647-.456v0s0,0-.006,0h0ZM16.128,59.252h0l.006-.006v0Zm.008-.306v-.007S16.131,58.946,16.137,58.946Zm31.965-.24a.64.64,0,0,1,.108-.026c0-.038.005-.076.005-.115A.526.526,0,0,0,48.1,58.706ZM78.1,58.322v0h0Zm.094-.563,0,0h0Zm-7.721-.513a.435.435,0,0,0,.347-.005C70.7,57.241,70.583,57.243,70.468,57.245ZM45,57.029c.138-.014.277-.025.414-.028a.638.638,0,0,0-.192-.03A.394.394,0,0,0,45,57.029Zm-16.71-.015a.519.519,0,0,0-.438,0q.1,0,.2,0T28.295,57.014Zm12.845-1.9.017.022c.009-.023.018-.045.028-.071C41.168,55.085,41.154,55.1,41.139,55.117Zm12.9-.688,0,0,0-.006ZM13.9,53.093h0l.033-.031-.018-.026-.016.057Zm0,0-.03-.043A.114.114,0,0,0,13.9,53.093Zm62.438-6.4a.7.7,0,0,0,.073-.129A.232.232,0,0,0,76.335,46.692ZM33.771,40.96l0,0a.036.036,0,0,1,0,.026h.008c0-.009,0-.019,0-.027h0v0Zm.024.015a.042.042,0,0,0-.023-.012ZM8.131,38.249l.01,0,0-.012ZM5.873,32.657h0l.011,0-.013-.017A.091.091,0,0,0,5.873,32.657ZM44.8,29.713l0-.006h0ZM69.6,29.62l.007,0,0-.009Zm-41.7-4.9h0a.186.186,0,0,1,.053-.026A.112.112,0,0,0,27.9,24.72Zm12.683-5.775,0,0v0h0Zm-15.654-1.63.005.006a.249.249,0,0,1,.048-.042A.07.07,0,0,0,24.932,17.314ZM64.553,16.7l.012,0v-.011Zm.082-.559.007-.013C64.626,16.133,64.617,16.142,64.636,16.14Zm-40.783-.172a.222.222,0,0,0,.22-.122C23.984,15.9,23.912,15.936,23.852,15.968ZM83.718,70.581c.3-.361.609-.761.97-1.262a27.2,27.2,0,0,0,1.761-2.8c.193-.351.379-.706.557-1.063.228-.456.454-.942.709-1.528s.482-1.139.672-1.643a29.062,29.062,0,0,0,.936-2.952,30.823,30.823,0,0,0,.668-3.348,25.27,25.27,0,0,0,.242-3.054,22.708,22.708,0,0,0-2.047-9.713c-.555-1.269-1.161-2.436-1.746-3.566l-.064-.123a10.593,10.593,0,0,1-.647-1.528c-.089-.264-.169-.538-.238-.817s-.127-.561-.176-.847a10.556,10.556,0,0,1,.084-3.9c.027-.129.057-.257.089-.385a10.826,10.826,0,0,1,4.294-6.3A10.537,10.537,0,0,1,93.505,24.1c.352-.081.718-.145,1.085-.192H94.6a10.732,10.732,0,0,1,11.878,8.664c.537,2.835-.806,9.77-2.006,13.494-1.727,5.359-6.771,15.674-21.187,25.01C83.434,70.917,83.577,70.75,83.718,70.581Zm-7.8-60.512A10.068,10.068,0,1,1,85.988,20.136,10.068,10.068,0,0,1,75.921,10.068Z" transform="translate(0)" stroke="rgba(0,0,0,0)" stroke-miterlimit="10" stroke-width="1" fill="url(#linear-gradient)"/>
    </g>
  </g>
</svg>
