<svg xmlns="http://www.w3.org/2000/svg" width="220" height="153" viewBox="0 0 220 153">
  <g id="lostpass" transform="translate(20733 4140)">
    <path id="Path_38945" data-name="Path 38945" d="M110,0a109.968,109.968,0,0,1,87.692,43.62C170.352,49.466,33.984,77.3,33.984,77.3s137.738-18.243,171-22.816a110.243,110.243,0,0,1,7.01,96.8c-65.651-7.172-106.027-13.366-211.1-27.2A110.089,110.089,0,0,1,110,0Z" transform="translate(-20733 -4140)" fill="#4d25b9" opacity="0.3"/>
    <circle id="Ellipse_297" data-name="Ellipse 297" cx="45" cy="45" r="45" transform="translate(-20669 -4077)" fill="#4d25b9"/>
    <g id="padlock" transform="translate(-20647 -4057)">
      <path id="Path_38946" data-name="Path 38946" d="M22.835,1A13.321,13.321,0,0,0,9.459,14.377v5.945A4.379,4.379,0,0,0,5,24.781V44.1a4.379,4.379,0,0,0,4.459,4.459H36.212A4.379,4.379,0,0,0,40.671,44.1V24.781a4.379,4.379,0,0,0-4.459-4.459V14.377A13.321,13.321,0,0,0,22.835,1ZM37.7,24.781V44.1a1.4,1.4,0,0,1-1.486,1.486H9.459A1.4,1.4,0,0,1,7.973,44.1V24.781a1.4,1.4,0,0,1,1.486-1.486H36.212A1.4,1.4,0,0,1,37.7,24.781ZM12.431,20.322V14.377a10.4,10.4,0,0,1,20.808,0v5.945Z" fill="#fff"/>
      <path id="Path_38947" data-name="Path 38947" d="M18.459,19A4.379,4.379,0,0,0,14,23.459a4.329,4.329,0,0,0,2.973,4.162v3.27a1.486,1.486,0,0,0,2.973,0V27.62a4.329,4.329,0,0,0,2.973-4.162A4.379,4.379,0,0,0,18.459,19Zm0,5.945a1.486,1.486,0,1,1,1.486-1.486A1.4,1.4,0,0,1,18.459,24.945Z" transform="translate(4.377 8.753)" fill="#fff"/>
    </g>
  </g>
</svg>
