<svg id="personal" xmlns="http://www.w3.org/2000/svg" width="75.601" height="75.602" viewBox="0 0 75.601 75.602">
  <path id="Path_31731" data-name="Path 31731" d="M146.4,277.86a1.26,1.26,0,0,0-1.26-1.26h-20.16v-.963l.728-1.456a5.066,5.066,0,0,0,.532-2.254V269.04a5.04,5.04,0,0,0-10.08,0v2.888a5.066,5.066,0,0,0,.532,2.254l.728,1.456v.962H97.26A1.26,1.26,0,0,0,96,277.86a6.307,6.307,0,0,0,6.3,6.3h10.08v16.38h2.52V282.9a1.26,1.26,0,0,0-1.26-1.26H102.3a3.787,3.787,0,0,1-3.564-2.52H118.68a1.26,1.26,0,0,0,1.26-1.26v-2.52a1.26,1.26,0,0,0-.133-.564l-.861-1.722a2.533,2.533,0,0,1-.266-1.127V269.04a2.52,2.52,0,1,1,5.04,0v2.888a2.533,2.533,0,0,1-.266,1.127l-.861,1.722a1.26,1.26,0,0,0-.133.563v2.52a1.26,1.26,0,0,0,1.26,1.26h19.944a3.787,3.787,0,0,1-3.564,2.52h-11.34a1.26,1.26,0,0,0-1.26,1.26v17.64h2.52V284.16H140.1A6.307,6.307,0,0,0,146.4,277.86Z" transform="translate(-83.404 -224.939)" fill="#4d25b9"/>
  <path id="Path_31732" data-name="Path 31732" d="M328.376,186.094a1.26,1.26,0,0,0,1.29.295l6.908-2.352A12.6,12.6,0,1,0,329.26,172.6a12.474,12.474,0,0,0,1.087,5.127l-2.286,7.087a1.26,1.26,0,0,0,.315,1.285Zm4.451-9.019a9.977,9.977,0,0,1-1.047-4.479,10.08,10.08,0,1,1,10.08,10.08,9.966,9.966,0,0,1-4.622-1.119,1.26,1.26,0,0,0-.985-.073l-5.024,1.711,1.668-5.171a1.26,1.26,0,0,0-.071-.948Z" transform="translate(-278.863 -137.314)" fill="#4d25b9"/>
  <rect id="Rectangle_1523" data-name="Rectangle 1523" width="2.52" height="2.52" transform="translate(56.697 35.281)" fill="#4d25b9"/>
  <rect id="Rectangle_1524" data-name="Rectangle 1524" width="2.52" height="2.52" transform="translate(61.737 35.281)" fill="#4d25b9"/>
  <rect id="Rectangle_1525" data-name="Rectangle 1525" width="2.52" height="2.52" transform="translate(66.777 35.281)" fill="#4d25b9"/>
  <path id="Path_31733" data-name="Path 31733" d="M202.079,226.325a7.6,7.6,0,0,1,6.833,4.321,1.26,1.26,0,0,0,2.368-.813l-1.671-7.56-2.461.544.608,2.749a10.077,10.077,0,0,0-14.317,13.515l2.158-1.3a7.562,7.562,0,0,1,6.481-11.455Z" transform="translate(-164.282 -189.785)" fill="#4d25b9"/>
  <path id="Path_31734" data-name="Path 31734" d="M27.727,197.046a1.26,1.26,0,0,0,1.791,0l9.816-9.92a6.571,6.571,0,0,0,0-9.212,6.427,6.427,0,0,0-9.153,0l-1.558,1.575-1.558-1.575a6.427,6.427,0,0,0-9.153,0,6.571,6.571,0,0,0,0,9.212ZM19.7,179.687a3.907,3.907,0,0,1,5.57,0l2.454,2.48a1.26,1.26,0,0,0,1.791,0l2.454-2.48a3.907,3.907,0,0,1,5.57,0,4.042,4.042,0,0,1,0,5.667l-8.92,9.015-8.92-9.015A4.042,4.042,0,0,1,19.7,179.687Z" transform="translate(-16.026 -150.799)" fill="#4d25b9"/>
  <path id="Path_31735" data-name="Path 31735" d="M178.111,32.887a6.066,6.066,0,0,0,2.027,7.007l.125.094A6.1,6.1,0,0,0,183.9,41.2a6.478,6.478,0,0,0,4.611-1.91l.088-.088.088.088A6.478,6.478,0,0,0,193.3,41.2a6.1,6.1,0,0,0,3.638-1.213l.125-.094a6.066,6.066,0,0,0,2.028-7.007A4.982,4.982,0,0,0,201.2,28.8a6.329,6.329,0,0,0-2.824-5.277l-1.062-.708A5.72,5.72,0,0,0,191.705,16h-.063a5.523,5.523,0,0,0-3.042.9,5.523,5.523,0,0,0-3.042-.9h-.063a5.721,5.721,0,0,0-5.609,6.815l-1.062.708A6.329,6.329,0,0,0,176,28.8a4.982,4.982,0,0,0,2.111,4.088Zm11.749,3.945V19.1a3.019,3.019,0,0,1,1.782-.576h.063a3.195,3.195,0,0,1,2.259,5.454l-1.215,1.215,1.782,1.782,1.215-1.215a5.8,5.8,0,0,0,.527-.606l.705.47a3.814,3.814,0,0,1,1.7,3.18,2.495,2.495,0,0,1-4.57,1.384l-.681-1.022-2.1,1.4.681,1.022a5.016,5.016,0,0,0,4.718,2.2,3.543,3.543,0,0,1-1.182,4.1l-.125.094a3.565,3.565,0,0,1-2.125.708,3.975,3.975,0,0,1-2.829-1.172l-.61-.61ZM180.222,25.62l.705-.47a5.8,5.8,0,0,0,.527.606l1.215,1.215,1.782-1.782-1.215-1.215a3.195,3.195,0,0,1,2.259-5.454h.063a3.019,3.019,0,0,1,1.782.576V36.9l-.61.61A3.975,3.975,0,0,1,183.9,38.68a3.565,3.565,0,0,1-2.125-.708l-.125-.094a3.543,3.543,0,0,1-1.182-4.095,5.017,5.017,0,0,0,4.718-2.2l.681-1.022-2.1-1.4-.681,1.022a2.495,2.495,0,0,1-4.57-1.384,3.814,3.814,0,0,1,1.7-3.18Z" transform="translate(-150.803 -16)" fill="#4d25b9"/>
  <path id="Path_31736" data-name="Path 31736" d="M60.923,30.179l-.781-2.4a37.921,37.921,0,0,0-22.691,20.3l2.294,1.044A35.4,35.4,0,0,1,60.923,30.179Z" transform="translate(-34.076 -25.928)" fill="#4d25b9"/>
  <path id="Path_31737" data-name="Path 31737" d="M26.552,290.848a35.042,35.042,0,0,1-7.476-19.391l-2.514.171a37.827,37.827,0,0,0,25.981,33.339l.781-2.4a35.2,35.2,0,0,1-16.772-11.724Z" transform="translate(-16.477 -231.222)" fill="#4d25b9"/>
  <path id="Path_31738" data-name="Path 31738" d="M340.373,325.619a35.379,35.379,0,0,1-14.853,9.488l.781,2.4a37.874,37.874,0,0,0,24.961-26.822l-2.446-.606A35.3,35.3,0,0,1,340.373,325.619Z" transform="translate(-276.773 -263.757)" fill="#4d25b9"/>
  <path id="Path_31739" data-name="Path 31739" d="M346.7,49.13l2.294-1.044a37.921,37.921,0,0,0-22.691-20.3l-.781,2.4A35.4,35.4,0,0,1,346.7,49.13Z" transform="translate(-276.773 -25.928)" fill="#4d25b9"/>
</svg>
