<svg id="psygist" xmlns="http://www.w3.org/2000/svg" width="92.581" height="72.489" viewBox="0 0 92.581 72.489">
  <g id="Group_6382" data-name="Group 6382">
    <path id="Path_31713" data-name="Path 31713" d="M63.224,227.837H17.1a1.567,1.567,0,0,1-1.479-1.051l-5.676-16.3a1.356,1.356,0,0,0-1.281-.91,5.978,5.978,0,0,1-5.949-5.832,5.826,5.826,0,0,1,1.7-4.215,6.193,6.193,0,0,1,4.392-1.853h1.533a2.3,2.3,0,0,1,2.169,1.544l8.029,23.116a1.356,1.356,0,0,0,1.281.911h6.039a1.356,1.356,0,1,0,0-2.712H22.783l-1.6-4.593H69.3a1.356,1.356,0,1,0,0-2.712H52.63l-3.138-6.658a8.7,8.7,0,0,0-7.836-4.97H16.207l-1.136-3.272a5.011,5.011,0,0,0-4.731-3.367H8.806a8.921,8.921,0,0,0-6.328,2.666A8.517,8.517,0,0,0,0,203.79a8.713,8.713,0,0,0,7.678,8.436l5.379,15.451a4.279,4.279,0,0,0,2.833,2.7v10.511a1.356,1.356,0,0,0,1.356,1.356h4.019a1.356,1.356,0,0,0,1.34-1.147l1.647-10.544H63.224a1.356,1.356,0,1,0,0-2.712ZM41.657,204.31a5.975,5.975,0,0,1,5.382,3.413l2.593,5.5H20.245l-3.1-8.915ZM20.105,239.528H18.6V230.55h2.9Z" transform="translate(0 -169.751)" fill="#4d25b9"/>
    <path id="Path_31714" data-name="Path 31714" d="M238.127,295.981H224.359a1.356,1.356,0,0,0,0,2.712h13.768a.471.471,0,0,1,.47.47v3.653a.471.471,0,0,1-.47.47H182.914a1.356,1.356,0,0,0,0,2.712h52.03v3.029a1.569,1.569,0,0,1-1.568,1.566h-15.1a1.356,1.356,0,1,0,0,2.712h7.907l1.647,10.544a1.356,1.356,0,0,0,1.34,1.147h4.019a1.356,1.356,0,0,0,1.356-1.356v-10.5a4.285,4.285,0,0,0,3.106-4.113V306h.47a3.186,3.186,0,0,0,3.182-3.182v-3.653A3.186,3.186,0,0,0,238.127,295.981Zm-7.79,26.3-1.4-8.978h2.9v8.978Z" transform="translate(-148.728 -252.507)" fill="#4d25b9"/>
    <path id="Path_31715" data-name="Path 31715" d="M362.3,55.558H340.383a5.015,5.015,0,0,0-5.009,5.009V76.641a5.015,5.015,0,0,0,5.009,5.009h13.248l6.945,5.209a1.356,1.356,0,0,0,2.17-1.085V81.631a5.016,5.016,0,0,0,4.566-4.99V60.567A5.015,5.015,0,0,0,362.3,55.558Zm2.3,21.083a2.3,2.3,0,0,1-2.3,2.3h-.913a1.356,1.356,0,0,0-1.356,1.356v2.768L354.9,79.21a1.356,1.356,0,0,0-.814-.271h-13.7a2.3,2.3,0,0,1-2.3-2.3V60.567a2.3,2.3,0,0,1,2.3-2.3H362.3a2.3,2.3,0,0,1,2.3,2.3Z" transform="translate(-274.731 -55.558)" fill="#4d25b9"/>
    <path id="Path_31716" data-name="Path 31716" d="M382.936,152.534H369.054a1.356,1.356,0,0,0,0,2.712h13.882a1.356,1.356,0,1,0,0-2.712Z" transform="translate(-301.21 -134.999)" fill="#4d25b9"/>
    <path id="Path_31717" data-name="Path 31717" d="M403.14,87.883H389.258a1.356,1.356,0,0,0,0,2.712H403.14a1.356,1.356,0,1,0,0-2.712Z" transform="translate(-317.761 -82.038)" fill="#4d25b9"/>
    <path id="Path_31718" data-name="Path 31718" d="M386.591,120.208H369.055a1.356,1.356,0,1,0,0,2.712h17.535a1.356,1.356,0,0,0,0-2.712Z" transform="translate(-301.211 -108.518)" fill="#4d25b9"/>
  </g>
</svg>
