<svg xmlns="http://www.w3.org/2000/svg" width="72" height="72" viewBox="0 0 72 72">
  <path id="psypist" d="M71.891,69.223,67.136,54.957a13.474,13.474,0,0,0-9.81-8.848L44.887,43.345V38.006a17.937,17.937,0,0,0,9.038-15.562V13.722a9.9,9.9,0,0,0-1.967-5.9l-.009-.012A19.622,19.622,0,0,0,36,0a19.623,19.623,0,0,0-15.95,7.809l-.009.012a9.9,9.9,0,0,0-1.967,5.9v8.722a17.937,17.937,0,0,0,9.038,15.562v5.339L14.674,46.109a13.475,13.475,0,0,0-9.81,8.848L.109,69.223a2.109,2.109,0,0,0,4,1.334L8.867,56.291a9.234,9.234,0,0,1,6.723-6.063l2.485-.552V59.09a6.628,6.628,0,1,0,4.219,0V48.738l5.9-1.31,6,9.992a2.109,2.109,0,0,0,3.617,0l6-9.994,5.9,1.311v5.739a8.894,8.894,0,0,0-6.778,8.636V69.89A2.109,2.109,0,0,0,45.037,72H47.3a2.109,2.109,0,1,0,0-4.219h-.15V63.112a4.669,4.669,0,1,1,9.337,0v4.669h-.15a2.109,2.109,0,1,0,0,4.219h2.259A2.109,2.109,0,0,0,60.7,69.89V63.112a8.9,8.9,0,0,0-6.778-8.633v-4.8l2.485.552a9.234,9.234,0,0,1,6.723,6.063l4.755,14.266a2.109,2.109,0,0,0,4-1.334Zm-49.3-3.851a2.409,2.409,0,1,1-2.409-2.409A2.412,2.412,0,0,1,22.594,65.372Zm-.3-51.65a5.651,5.651,0,0,1,1.116-3.36l.007-.01a15.394,15.394,0,0,1,12.6-6.133,15.39,15.39,0,0,1,12.562,6.133l.007.01a5.651,5.651,0,0,1,1.116,3.36v3.63l-2.9-2.9a2.318,2.318,0,0,0-1.765-.891,2.108,2.108,0,0,0-.943.223,18.186,18.186,0,0,1-16.188,0,2.108,2.108,0,0,0-2.435.4l-3.177,3.174V13.722Zm0,8.722V22a7.524,7.524,0,0,0,3.239-1.917l1.886-1.886a22.46,22.46,0,0,0,17.162,0l1.886,1.886A7.522,7.522,0,0,0,49.706,22v.448a13.706,13.706,0,0,1-27.413,0ZM40.669,44.453,36,52.234l-4.669-7.781v-4.7a17.943,17.943,0,0,0,9.337,0Z" transform="translate(0 0)" fill="#4d25b9"/>
</svg>
