<svg id="sce" xmlns="http://www.w3.org/2000/svg" width="12.875" height="12.875" viewBox="0 0 12.875 12.875">
  <g id="Group_38650" data-name="Group 38650">
    <circle id="Ellipse_300" data-name="Ellipse 300" cx="0.531" cy="0.531" r="0.531" transform="translate(9.203 4.778)" fill="#006b99"/>
    <path id="Path_39112" data-name="Path 39112" d="M10.863,1.006h-.654V.5A.5.5,0,0,0,9.2.5v.5H6.915V.5A.5.5,0,0,0,5.909.5v.5H3.646V.5A.5.5,0,0,0,2.64.5v.5H2.012A2.014,2.014,0,0,0,0,3.018v7.846a2.014,2.014,0,0,0,2.012,2.012H5.859a.5.5,0,0,0,0-1.006H2.012a1.007,1.007,0,0,1-1.006-1.006V3.018A1.007,1.007,0,0,1,2.012,2.012H2.64v.5a.5.5,0,0,0,1.006,0v-.5H5.909v.5a.5.5,0,0,0,1.006,0v-.5H9.2v.5a.5.5,0,0,0,1.006,0v-.5h.654a1.007,1.007,0,0,1,1.006,1.006V5.884a.5.5,0,0,0,1.006,0V3.018A2.014,2.014,0,0,0,10.863,1.006Z" fill="#006b99"/>
    <path id="Path_39113" data-name="Path 39113" d="M273.043,270a3.043,3.043,0,1,0,3.043,3.043A3.046,3.046,0,0,0,273.043,270Zm0,5.08a2.037,2.037,0,1,1,2.037-2.037A2.039,2.039,0,0,1,273.043,275.08Z" transform="translate(-263.21 -263.21)" fill="#006b99"/>
    <path id="Path_39114" data-name="Path 39114" d="M372.232,331.031h-.226V330.5a.5.5,0,0,0-1.006,0v1.031a.5.5,0,0,0,.5.5h.729a.5.5,0,0,0,0-1.006Z" transform="translate(-361.671 -321.702)" fill="#006b99"/>
    <ellipse id="Ellipse_301" data-name="Ellipse 301" cx="0.531" cy="0.531" rx="0.531" ry="0.531" transform="translate(7.079 4.778)" fill="#006b99"/>
    <circle id="Ellipse_302" data-name="Ellipse 302" cx="0.531" cy="0.531" r="0.531" transform="translate(4.778 6.902)" fill="#006b99"/>
    <circle id="Ellipse_303" data-name="Ellipse 303" cx="0.531" cy="0.531" r="0.531" transform="translate(2.655 4.778)" fill="#006b99"/>
    <circle id="Ellipse_304" data-name="Ellipse 304" cx="0.531" cy="0.531" r="0.531" transform="translate(2.655 6.902)" fill="#006b99"/>
    <ellipse id="Ellipse_305" data-name="Ellipse 305" cx="0.531" cy="0.531" rx="0.531" ry="0.531" transform="translate(2.655 9.203)" fill="#006b99"/>
    <ellipse id="Ellipse_306" data-name="Ellipse 306" cx="0.531" cy="0.531" rx="0.531" ry="0.531" transform="translate(4.778 9.203)" fill="#006b99"/>
    <circle id="Ellipse_307" data-name="Ellipse 307" cx="0.531" cy="0.531" r="0.531" transform="translate(4.778 4.778)" fill="#006b99"/>
  </g>
</svg>
