<svg id="work" xmlns="http://www.w3.org/2000/svg" width="72.484" height="72.488" viewBox="0 0 72.484 72.488">
  <g id="Group_6385" data-name="Group 6385" transform="translate(0 0)">
    <g id="Group_6384" data-name="Group 6384">
      <path id="Path_31720" data-name="Path 31720" d="M268.081,276.364a8.271,8.271,0,1,0-5.852-2.42A8.25,8.25,0,0,0,268.081,276.364Zm-4.35-12.622a6.153,6.153,0,1,1,0,8.7A6.133,6.133,0,0,1,263.731,263.742Z" transform="translate(-223.046 -223.054)" fill="#4d25b9"/>
      <path id="Path_31721" data-name="Path 31721" d="M225.91,226.031A13.57,13.57,0,0,0,223,240.993a1.061,1.061,0,1,0,1.954-.829,11.5,11.5,0,1,1,10.656,7h-.069a11.429,11.429,0,0,1-8.027-3.266,1.061,1.061,0,1,0-1.482,1.52,13.537,13.537,0,0,0,9.508,3.869h.082a13.623,13.623,0,1,0-9.714-23.256Z" transform="translate(-190.508 -190.625)" fill="#4d25b9"/>
      <path id="Path_31722" data-name="Path 31722" d="M70.464,40.274H66.687A21.971,21.971,0,0,0,63.721,33.1l2.668-2.668a2.032,2.032,0,0,0,0-2.875L62.524,23.7a2.032,2.032,0,0,0-2.875,0l-2.668,2.668A21.968,21.968,0,0,0,49.813,23.4V19.623A2.035,2.035,0,0,0,47.78,17.59H42.315a2.029,2.029,0,0,0-1.57.743h-.694a17.95,17.95,0,0,0-2.3-5.562l2.041-2.041a1.849,1.849,0,0,0,0-2.611L36.668,5a1.846,1.846,0,0,0-2.611,0L32.016,7.037a17.95,17.95,0,0,0-5.562-2.3V1.846A1.848,1.848,0,0,0,24.608,0H20.191a1.848,1.848,0,0,0-1.846,1.846V4.735a17.955,17.955,0,0,0-5.562,2.3L10.742,5A1.846,1.846,0,0,0,8.131,5L5.007,8.119a1.849,1.849,0,0,0,0,2.611l2.041,2.041a17.951,17.951,0,0,0-2.3,5.562H1.858A1.848,1.848,0,0,0,.012,20.179V24.6a1.848,1.848,0,0,0,1.846,1.846H4.747A17.948,17.948,0,0,0,7.049,32L5.007,34.046a1.848,1.848,0,0,0,0,2.611L8.131,39.78a1.849,1.849,0,0,0,2.611,0l2.041-2.041a17.946,17.946,0,0,0,5.562,2.3v.695a2.029,2.029,0,0,0-.746,1.572v5.465A2.035,2.035,0,0,0,19.631,49.8h3.777a21.973,21.973,0,0,0,2.967,7.169l-2.668,2.668a2.032,2.032,0,0,0,0,2.875l3.865,3.865a2.032,2.032,0,0,0,2.875,0l2.668-2.668a21.966,21.966,0,0,0,7.169,2.967v3.777a2.035,2.035,0,0,0,2.033,2.033H47.78a2.035,2.035,0,0,0,2.033-2.033V66.679a21.968,21.968,0,0,0,7.169-2.967l2.668,2.668a2.032,2.032,0,0,0,2.874,0l3.865-3.865a2.032,2.032,0,0,0,0-2.875l-2.668-2.668A21.972,21.972,0,0,0,66.687,49.8h3.777A2.035,2.035,0,0,0,72.5,47.772V42.306a2.035,2.035,0,0,0-2.033-2.032ZM19.007,38.013a15.843,15.843,0,0,1-5.259-2.176,1.858,1.858,0,0,0-2.308.244l-2,2L6.7,35.351l2-2a1.858,1.858,0,0,0,.244-2.308A15.842,15.842,0,0,1,6.774,25.78a1.859,1.859,0,0,0-1.8-1.46H2.135V20.455H4.97a1.859,1.859,0,0,0,1.8-1.461,15.841,15.841,0,0,1,2.176-5.259,1.858,1.858,0,0,0-.244-2.308l-2-2L9.436,6.692l2,2a1.858,1.858,0,0,0,2.308.244,15.842,15.842,0,0,1,5.259-2.176,1.859,1.859,0,0,0,1.461-1.8V2.123h3.864V4.958a1.859,1.859,0,0,0,1.461,1.8,15.846,15.846,0,0,1,5.259,2.176A1.858,1.858,0,0,0,33.36,8.7l2-2L38.1,9.424l-2,2a1.858,1.858,0,0,0-.244,2.308,15.841,15.841,0,0,1,2.176,5.259,1.859,1.859,0,0,0,1.8,1.461h.453V23.4a21.966,21.966,0,0,0-7.169,2.967L30.445,23.7c-.032-.032-.065-.06-.1-.09A8.041,8.041,0,0,0,19.58,14.852a1.061,1.061,0,0,0,.743,1.989,5.917,5.917,0,0,1,7.93,6.407,2.029,2.029,0,0,0-.682.45l-3.865,3.865a2.026,2.026,0,0,0-.451.684,5.943,5.943,0,0,1-.856.064,5.923,5.923,0,0,1-5.167-8.818,1.061,1.061,0,0,0-1.851-1.039,8.04,8.04,0,0,0,8.232,11.883c.03.034.06.069.092.1l2.668,2.668a21.971,21.971,0,0,0-2.967,7.169h-2.94v-.456a1.859,1.859,0,0,0-1.461-1.8Zm51.367,9.669h-3.76a2.047,2.047,0,0,0-1.987,1.609A19.855,19.855,0,0,1,61.9,55.88a2.046,2.046,0,0,0,.268,2.542l2.657,2.657-3.737,3.737-2.657-2.657a2.046,2.046,0,0,0-2.541-.268,19.856,19.856,0,0,1-6.59,2.727,2.046,2.046,0,0,0-1.608,1.987v3.76H42.405v-3.76A2.047,2.047,0,0,0,40.8,64.618a19.855,19.855,0,0,1-6.59-2.727,2.046,2.046,0,0,0-2.542.268l-2.656,2.657-3.737-3.737,2.656-2.657A2.045,2.045,0,0,0,28.2,55.88a19.856,19.856,0,0,1-2.727-6.59,2.047,2.047,0,0,0-1.987-1.609h-3.76V42.4h3.76a2.047,2.047,0,0,0,1.987-1.609A19.855,19.855,0,0,1,28.2,34.2a2.045,2.045,0,0,0-.268-2.542L25.271,29l3.737-3.737,2.656,2.657a2.046,2.046,0,0,0,2.542.268A19.856,19.856,0,0,1,40.8,25.46a2.046,2.046,0,0,0,1.609-1.987v-3.76H47.69v3.76A2.046,2.046,0,0,0,49.3,25.459a19.855,19.855,0,0,1,6.59,2.727,2.046,2.046,0,0,0,2.542-.268l2.656-2.657L64.825,29l-2.657,2.657A2.045,2.045,0,0,0,61.9,34.2a19.857,19.857,0,0,1,2.727,6.59A2.047,2.047,0,0,0,66.614,42.4h3.76v5.285Z" transform="translate(-0.012 0)" fill="#4d25b9"/>
    </g>
  </g>
</svg>
